<svg width="332" height="196" viewBox="0 0 332 196" fill="none" xmlns="http://www.w3.org/2000/svg">
<g filter="url(#filter0_d)">
<path d="M65.376 85.104H54.864V82.8H90.864V85.104H80.352V124.848C78.528 124.176 76.32 123.84 73.728 123.84C71.136 123.84 67.008 124.656 61.344 126.288C55.776 128.016 50.88 128.88 46.656 128.88C34.368 128.88 24.816 124.032 18 114.336C11.184 104.544 7.776 92.832 7.776 79.2C7.776 65.472 11.328 53.76 18.432 44.064C25.632 34.368 35.28 29.52 47.376 29.52C51.696 29.52 56.544 30.336 61.92 31.968C67.296 33.6 70.416 34.416 71.28 34.416C74.064 34.416 75.696 32.784 76.176 29.52H77.904V61.056H75.6C74.16 52.32 71.232 45.36 66.816 40.176C62.4 34.896 56.352 32.256 48.672 32.256C39.552 32.256 33.312 36.144 29.952 43.92C27.168 50.544 25.632 59.28 25.344 70.128C25.344 72.624 25.344 76.416 25.344 81.504C25.344 86.592 25.632 91.488 26.208 96.192C26.784 100.896 27.84 105.648 29.376 110.448C30.912 115.248 33.36 118.992 36.72 121.68C40.08 124.272 44.4 125.568 49.68 125.568C54.96 125.568 60.192 124.464 65.376 122.256V85.104ZM123.283 123.84H132.787V126H100.963V123.84H110.467V28.8H100.243V26.64H103.267C110.755 26.64 117.427 26.016 123.283 24.768V123.84ZM199.749 118.8C194.181 125.52 186.405 128.88 176.421 128.88C166.437 128.88 158.661 125.52 153.093 118.8C147.525 112.08 144.741 103.44 144.741 92.88C144.741 82.32 147.525 73.68 153.093 66.96C158.661 60.24 166.437 56.88 176.421 56.88C186.405 56.88 194.181 60.24 199.749 66.96C205.317 73.68 208.101 82.32 208.101 92.88C208.101 103.44 205.317 112.08 199.749 118.8ZM193.845 102.528C194.037 99.744 194.133 96.528 194.133 92.88C194.133 89.232 194.037 86.016 193.845 83.232C193.653 80.448 193.173 77.472 192.405 74.304C191.733 71.136 190.773 68.544 189.525 66.528C188.373 64.416 186.645 62.688 184.341 61.344C182.133 60 179.493 59.328 176.421 59.328C173.349 59.328 170.661 60 168.357 61.344C166.149 62.688 164.421 64.416 163.173 66.528C162.021 68.544 161.061 71.136 160.293 74.304C159.621 77.472 159.189 80.448 158.997 83.232C158.805 86.016 158.709 89.232 158.709 92.88C158.709 96.528 158.805 99.744 158.997 102.528C159.189 105.312 159.621 108.288 160.293 111.456C161.061 114.624 162.021 117.264 163.173 119.376C164.421 121.392 166.149 123.072 168.357 124.416C170.661 125.76 173.349 126.432 176.421 126.432C179.493 126.432 182.133 125.76 184.341 124.416C186.645 123.072 188.373 121.392 189.525 119.376C190.773 117.264 191.733 114.624 192.405 111.456C193.173 108.288 193.653 105.312 193.845 102.528ZM301.399 122.4C306.199 122.4 310.663 117.84 314.791 108.72C318.919 99.6 320.983 90 320.983 79.92C320.983 66.096 317.239 59.184 309.751 59.184C308.791 59.184 308.311 59.568 308.311 60.336C308.311 61.104 308.743 61.584 309.607 61.776C312.199 62.256 313.495 64.176 313.495 67.536C313.399 69.552 312.631 71.184 311.191 72.432C309.847 73.68 308.023 74.304 305.719 74.304C303.511 74.304 301.639 73.536 300.103 72C298.663 70.464 297.943 68.448 297.943 65.952C297.943 63.456 298.951 61.344 300.967 59.616C302.983 57.792 305.431 56.88 308.311 56.88C318.487 56.88 323.575 64.368 323.575 79.344C323.575 91.632 320.887 102.96 315.511 113.328C310.135 123.696 303.799 128.88 296.503 128.88C287.191 128.88 280.087 121.872 275.191 107.856C272.599 114.192 269.431 119.28 265.687 123.12C261.943 126.96 257.959 128.88 253.735 128.88C245.575 128.88 239.095 123.504 234.295 112.752C229.591 102 227.239 87.744 227.239 69.984V61.92H217.015V59.76H220.039C227.623 59.76 234.391 59.136 240.343 57.888V66.672C240.343 80.208 241.639 92.448 244.231 103.392C245.575 109.056 247.495 113.664 249.991 117.216C252.487 120.672 255.223 122.4 258.199 122.4C261.271 122.4 264.151 120.72 266.839 117.36C269.623 113.904 271.975 109.44 273.895 103.968C271.303 94.56 270.007 83.232 270.007 69.984V61.92H259.783V59.76H262.807C270.391 59.76 277.159 59.136 283.111 57.888V66.672C283.111 80.208 284.407 92.448 286.999 103.392C288.343 109.056 290.263 113.664 292.759 117.216C295.255 120.672 298.135 122.4 301.399 122.4Z" fill="#FFD700"/>
<path d="M65.376 85.104H66.376V84.104H65.376V85.104ZM54.864 85.104H53.864V86.104H54.864V85.104ZM54.864 82.8V81.8H53.864V82.8H54.864ZM90.864 82.8H91.864V81.8H90.864V82.8ZM90.864 85.104V86.104H91.864V85.104H90.864ZM80.352 85.104V84.104H79.352V85.104H80.352ZM80.352 124.848L80.0063 125.786L81.352 126.282V124.848H80.352ZM61.344 126.288L61.0671 125.327L61.0573 125.33L61.0476 125.333L61.344 126.288ZM18 114.336L17.1793 114.907L17.1819 114.911L18 114.336ZM18.432 44.064L17.6291 43.4678L17.6253 43.473L18.432 44.064ZM61.92 31.968L62.2105 31.0111V31.0111L61.92 31.968ZM76.176 29.52V28.52H75.3123L75.1866 29.3745L76.176 29.52ZM77.904 29.52H78.904V28.52H77.904V29.52ZM77.904 61.056V62.056H78.904V61.056H77.904ZM75.6 61.056L74.6133 61.2186L74.7513 62.056H75.6V61.056ZM66.816 40.176L66.0489 40.8176L66.0548 40.8245L66.816 40.176ZM29.952 43.92L29.034 43.5233L29.0301 43.5325L29.952 43.92ZM25.344 70.128L24.3444 70.1015L24.344 70.1147V70.128H25.344ZM26.208 96.192L27.2006 96.0705L26.208 96.192ZM29.376 110.448L28.4236 110.753L29.376 110.448ZM36.72 121.68L36.0953 122.461L36.1022 122.466L36.1092 122.472L36.72 121.68ZM65.376 122.256L65.7679 123.176L66.376 122.917V122.256H65.376ZM65.376 84.104H54.864V86.104H65.376V84.104ZM55.864 85.104V82.8H53.864V85.104H55.864ZM54.864 83.8H90.864V81.8H54.864V83.8ZM89.864 82.8V85.104H91.864V82.8H89.864ZM90.864 84.104H80.352V86.104H90.864V84.104ZM79.352 85.104V124.848H81.352V85.104H79.352ZM80.6977 123.91C78.7329 123.186 76.401 122.84 73.728 122.84V124.84C76.239 124.84 78.3231 125.166 80.0063 125.786L80.6977 123.91ZM73.728 122.84C70.9828 122.84 66.7363 123.694 61.0671 125.327L61.6209 127.249C67.2797 125.618 71.2892 124.84 73.728 124.84V122.84ZM61.0476 125.333C55.5419 127.042 50.7495 127.88 46.656 127.88V129.88C51.0105 129.88 56.0101 128.99 61.6404 127.243L61.0476 125.333ZM46.656 127.88C34.6794 127.88 25.4388 123.179 18.8181 113.761L17.1819 114.911C24.1932 124.885 34.0566 129.88 46.656 129.88V127.88ZM18.8207 113.765C12.1376 104.164 8.776 92.6579 8.776 79.2H6.776C6.776 93.0061 10.2304 104.924 17.1793 114.907L18.8207 113.765ZM8.776 79.2C8.776 65.6531 12.2777 54.1558 19.2387 44.655L17.6253 43.473C10.3783 53.3642 6.776 65.2909 6.776 79.2H8.776ZM19.2349 44.6602C26.2458 35.2187 35.5958 30.52 47.376 30.52V28.52C34.9642 28.52 25.0182 33.5173 17.6291 43.4678L19.2349 44.6602ZM47.376 30.52C51.5732 30.52 56.3211 31.3134 61.6295 32.9249L62.2105 31.0111C56.7669 29.3586 51.8189 28.52 47.376 28.52V30.52ZM61.6295 32.9249C64.3223 33.7423 66.4605 34.3586 68.039 34.7715C68.8276 34.9777 69.4857 35.1356 70.0084 35.2427C70.5079 35.345 70.9529 35.416 71.28 35.416V33.416C71.1751 33.416 70.9061 33.385 70.4097 33.2833C69.9363 33.1864 69.3164 33.0383 68.545 32.8365C67.0035 32.4334 64.8937 31.8257 62.2105 31.0111L61.6295 32.9249ZM71.28 35.416C72.8788 35.416 74.2579 34.9403 75.2991 33.8991C76.32 32.8782 76.9071 31.4218 77.1654 29.6655L75.1866 29.3745C74.9649 30.8822 74.496 31.8738 73.8849 32.4849C73.2941 33.0757 72.4652 33.416 71.28 33.416V35.416ZM76.176 30.52H77.904V28.52H76.176V30.52ZM76.904 29.52V61.056H78.904V29.52H76.904ZM77.904 60.056H75.6V62.056H77.904V60.056ZM76.5867 60.8934C75.1258 52.0306 72.1416 44.8857 67.5772 39.5275L66.0548 40.8245C70.3224 45.8343 73.1942 52.6093 74.6133 61.2186L76.5867 60.8934ZM67.5831 39.5344C62.9536 33.9992 56.6095 31.256 48.672 31.256V33.256C56.0945 33.256 61.8464 35.7928 66.0489 40.8176L67.5831 39.5344ZM48.672 31.256C43.9699 31.256 39.936 32.2591 36.6232 34.3233C33.3052 36.3906 30.7821 39.4779 29.034 43.5233L30.87 44.3166C32.4819 40.5861 34.7588 37.8414 37.6808 36.0207C40.608 34.1969 44.2541 33.256 48.672 33.256V31.256ZM29.0301 43.5325C26.18 50.3138 24.6341 59.1864 24.3444 70.1015L26.3436 70.1545C26.6299 59.3736 28.156 50.7741 30.8739 44.3075L29.0301 43.5325ZM24.344 70.128C24.344 70.1329 24.344 70.1378 24.344 70.1426C24.344 70.1475 24.344 70.1524 24.344 70.1573C24.344 70.1622 24.344 70.1671 24.344 70.172C24.344 70.1769 24.344 70.1818 24.344 70.1867C24.344 70.1917 24.344 70.1966 24.344 70.2015C24.344 70.2064 24.344 70.2113 24.344 70.2163C24.344 70.2212 24.344 70.2262 24.344 70.2311C24.344 70.236 24.344 70.241 24.344 70.2459C24.344 70.2509 24.344 70.2559 24.344 70.2608C24.344 70.2658 24.344 70.2708 24.344 70.2757C24.344 70.2807 24.344 70.2857 24.344 70.2907C24.344 70.2957 24.344 70.3006 24.344 70.3056C24.344 70.3106 24.344 70.3156 24.344 70.3206C24.344 70.3256 24.344 70.3306 24.344 70.3357C24.344 70.3407 24.344 70.3457 24.344 70.3507C24.344 70.3557 24.344 70.3608 24.344 70.3658C24.344 70.3708 24.344 70.3759 24.344 70.3809C24.344 70.386 24.344 70.391 24.344 70.3961C24.344 70.4011 24.344 70.4062 24.344 70.4112C24.344 70.4163 24.344 70.4214 24.344 70.4264C24.344 70.4315 24.344 70.4366 24.344 70.4417C24.344 70.4467 24.344 70.4518 24.344 70.4569C24.344 70.462 24.344 70.4671 24.344 70.4722C24.344 70.4773 24.344 70.4824 24.344 70.4875C24.344 70.4927 24.344 70.4978 24.344 70.5029C24.344 70.508 24.344 70.5131 24.344 70.5183C24.344 70.5234 24.344 70.5285 24.344 70.5337C24.344 70.5388 24.344 70.544 24.344 70.5491C24.344 70.5543 24.344 70.5594 24.344 70.5646C24.344 70.5698 24.344 70.5749 24.344 70.5801C24.344 70.5853 24.344 70.5904 24.344 70.5956C24.344 70.6008 24.344 70.606 24.344 70.6112C24.344 70.6164 24.344 70.6216 24.344 70.6268C24.344 70.632 24.344 70.6372 24.344 70.6424C24.344 70.6476 24.344 70.6528 24.344 70.658C24.344 70.6633 24.344 70.6685 24.344 70.6737C24.344 70.6789 24.344 70.6842 24.344 70.6894C24.344 70.6947 24.344 70.6999 24.344 70.7052C24.344 70.7104 24.344 70.7157 24.344 70.7209C24.344 70.7262 24.344 70.7315 24.344 70.7367C24.344 70.742 24.344 70.7473 24.344 70.7526C24.344 70.7578 24.344 70.7631 24.344 70.7684C24.344 70.7737 24.344 70.779 24.344 70.7843C24.344 70.7896 24.344 70.7949 24.344 70.8002C24.344 70.8055 24.344 70.8108 24.344 70.8162C24.344 70.8215 24.344 70.8268 24.344 70.8321C24.344 70.8375 24.344 70.8428 24.344 70.8481C24.344 70.8535 24.344 70.8588 24.344 70.8642C24.344 70.8695 24.344 70.8749 24.344 70.8802C24.344 70.8856 24.344 70.891 24.344 70.8963C24.344 70.9017 24.344 70.9071 24.344 70.9125C24.344 70.9178 24.344 70.9232 24.344 70.9286C24.344 70.934 24.344 70.9394 24.344 70.9448C24.344 70.9502 24.344 70.9556 24.344 70.961C24.344 70.9664 24.344 70.9718 24.344 70.9772C24.344 70.9827 24.344 70.9881 24.344 70.9935C24.344 70.9989 24.344 71.0044 24.344 71.0098C24.344 71.0153 24.344 71.0207 24.344 71.0261C24.344 71.0316 24.344 71.037 24.344 71.0425C24.344 71.048 24.344 71.0534 24.344 71.0589C24.344 71.0644 24.344 71.0698 24.344 71.0753C24.344 71.0808 24.344 71.0863 24.344 71.0918C24.344 71.0973 24.344 71.1027 24.344 71.1082C24.344 71.1137 24.344 71.1192 24.344 71.1247C24.344 71.1303 24.344 71.1358 24.344 71.1413C24.344 71.1468 24.344 71.1523 24.344 71.1579C24.344 71.1634 24.344 71.1689 24.344 71.1745C24.344 71.18 24.344 71.1855 24.344 71.1911C24.344 71.1966 24.344 71.2022 24.344 71.2077C24.344 71.2133 24.344 71.2189 24.344 71.2244C24.344 71.23 24.344 71.2356 24.344 71.2411C24.344 71.2467 24.344 71.2523 24.344 71.2579C24.344 71.2635 24.344 71.2691 24.344 71.2747C24.344 71.2803 24.344 71.2859 24.344 71.2915C24.344 71.2971 24.344 71.3027 24.344 71.3083C24.344 71.3139 24.344 71.3195 24.344 71.3252C24.344 71.3308 24.344 71.3364 24.344 71.3421C24.344 71.3477 24.344 71.3533 24.344 71.359C24.344 71.3646 24.344 71.3703 24.344 71.3759C24.344 71.3816 24.344 71.3873 24.344 71.3929C24.344 71.3986 24.344 71.4043 24.344 71.4099C24.344 71.4156 24.344 71.4213 24.344 71.427C24.344 71.4327 24.344 71.4384 24.344 71.444C24.344 71.4497 24.344 71.4554 24.344 71.4612C24.344 71.4669 24.344 71.4726 24.344 71.4783C24.344 71.484 24.344 71.4897 24.344 71.4954C24.344 71.5012 24.344 71.5069 24.344 71.5126C24.344 71.5184 24.344 71.5241 24.344 71.5299C24.344 71.5356 24.344 71.5414 24.344 71.5471C24.344 71.5529 24.344 71.5586 24.344 71.5644C24.344 71.5701 24.344 71.5759 24.344 71.5817C24.344 71.5875 24.344 71.5932 24.344 71.599C24.344 71.6048 24.344 71.6106 24.344 71.6164C24.344 71.6222 24.344 71.628 24.344 71.6338C24.344 71.6396 24.344 71.6454 24.344 71.6512C24.344 71.657 24.344 71.6629 24.344 71.6687C24.344 71.6745 24.344 71.6803 24.344 71.6862C24.344 71.692 24.344 71.6978 24.344 71.7037C24.344 71.7095 24.344 71.7154 24.344 71.7212C24.344 71.7271 24.344 71.7329 24.344 71.7388C24.344 71.7447 24.344 71.7505 24.344 71.7564C24.344 71.7623 24.344 71.7682 24.344 71.7741C24.344 71.7799 24.344 71.7858 24.344 71.7917C24.344 71.7976 24.344 71.8035 24.344 71.8094C24.344 71.8153 24.344 71.8212 24.344 71.8271C24.344 71.8331 24.344 71.839 24.344 71.8449C24.344 71.8508 24.344 71.8567 24.344 71.8627C24.344 71.8686 24.344 71.8745 24.344 71.8805C24.344 71.8864 24.344 71.8924 24.344 71.8983C24.344 71.9043 24.344 71.9102 24.344 71.9162C24.344 71.9222 24.344 71.9281 24.344 71.9341C24.344 71.9401 24.344 71.9461 24.344 71.952C24.344 71.958 24.344 71.964 24.344 71.97C24.344 71.976 24.344 71.982 24.344 71.988C24.344 71.994 24.344 72 24.344 72.006C24.344 72.012 24.344 72.0181 24.344 72.0241C24.344 72.0301 24.344 72.0361 24.344 72.0422C24.344 72.0482 24.344 72.0542 24.344 72.0603C24.344 72.0663 24.344 72.0723 24.344 72.0784C24.344 72.0845 24.344 72.0905 24.344 72.0966C24.344 72.1026 24.344 72.1087 24.344 72.1148C24.344 72.1208 24.344 72.1269 24.344 72.133C24.344 72.1391 24.344 72.1452 24.344 72.1513C24.344 72.1573 24.344 72.1634 24.344 72.1695C24.344 72.1757 24.344 72.1818 24.344 72.1879C24.344 72.194 24.344 72.2001 24.344 72.2062C24.344 72.2123 24.344 72.2185 24.344 72.2246C24.344 72.2307 24.344 72.2369 24.344 72.243C24.344 72.2491 24.344 72.2553 24.344 72.2614C24.344 72.2676 24.344 72.2737 24.344 72.2799C24.344 72.2861 24.344 72.2922 24.344 72.2984C24.344 72.3046 24.344 72.3107 24.344 72.3169C24.344 72.3231 24.344 72.3293 24.344 72.3355C24.344 72.3417 24.344 72.3479 24.344 72.3541C24.344 72.3603 24.344 72.3665 24.344 72.3727C24.344 72.3789 24.344 72.3851 24.344 72.3913C24.344 72.3975 24.344 72.4038 24.344 72.41C24.344 72.4162 24.344 72.4225 24.344 72.4287C24.344 72.4349 24.344 72.4412 24.344 72.4474C24.344 72.4537 24.344 72.4599 24.344 72.4662C24.344 72.4725 24.344 72.4787 24.344 72.485C24.344 72.4913 24.344 72.4975 24.344 72.5038C24.344 72.5101 24.344 72.5164 24.344 72.5227C24.344 72.529 24.344 72.5352 24.344 72.5415C24.344 72.5478 24.344 72.5541 24.344 72.5605C24.344 72.5668 24.344 72.5731 24.344 72.5794C24.344 72.5857 24.344 72.592 24.344 72.5984C24.344 72.6047 24.344 72.611 24.344 72.6174C24.344 72.6237 24.344 72.6301 24.344 72.6364C24.344 72.6427 24.344 72.6491 24.344 72.6555C24.344 72.6618 24.344 72.6682 24.344 72.6745C24.344 72.6809 24.344 72.6873 24.344 72.6937C24.344 72.7 24.344 72.7064 24.344 72.7128C24.344 72.7192 24.344 72.7256 24.344 72.732C24.344 72.7384 24.344 72.7448 24.344 72.7512C24.344 72.7576 24.344 72.764 24.344 72.7704C24.344 72.7769 24.344 72.7833 24.344 72.7897C24.344 72.7961 24.344 72.8026 24.344 72.809C24.344 72.8154 24.344 72.8219 24.344 72.8283C24.344 72.8348 24.344 72.8412 24.344 72.8477C24.344 72.8541 24.344 72.8606 24.344 72.8671C24.344 72.8735 24.344 72.88 24.344 72.8865C24.344 72.893 24.344 72.8994 24.344 72.9059C24.344 72.9124 24.344 72.9189 24.344 72.9254C24.344 72.9319 24.344 72.9384 24.344 72.9449C24.344 72.9514 24.344 72.9579 24.344 72.9644C24.344 72.971 24.344 72.9775 24.344 72.984C24.344 72.9905 24.344 72.9971 24.344 73.0036C24.344 73.0101 24.344 73.0167 24.344 73.0232C24.344 73.0298 24.344 73.0363 24.344 73.0429C24.344 73.0494 24.344 73.056 24.344 73.0626C24.344 73.0691 24.344 73.0757 24.344 73.0823C24.344 73.0889 24.344 73.0954 24.344 73.102C24.344 73.1086 24.344 73.1152 24.344 73.1218C24.344 73.1284 24.344 73.135 24.344 73.1416C24.344 73.1482 24.344 73.1548 24.344 73.1614C24.344 73.168 24.344 73.1747 24.344 73.1813C24.344 73.1879 24.344 73.1945 24.344 73.2012C24.344 73.2078 24.344 73.2144 24.344 73.2211C24.344 73.2277 24.344 73.2344 24.344 73.241C24.344 73.2477 24.344 73.2544 24.344 73.261C24.344 73.2677 24.344 73.2744 24.344 73.281C24.344 73.2877 24.344 73.2944 24.344 73.3011C24.344 73.3078 24.344 73.3144 24.344 73.3211C24.344 73.3278 24.344 73.3345 24.344 73.3412C24.344 73.3479 24.344 73.3546 24.344 73.3614C24.344 73.3681 24.344 73.3748 24.344 73.3815C24.344 73.3882 24.344 73.395 24.344 73.4017C24.344 73.4084 24.344 73.4152 24.344 73.4219C24.344 73.4287 24.344 73.4354 24.344 73.4422C24.344 73.4489 24.344 73.4557 24.344 73.4624C24.344 73.4692 24.344 73.476 24.344 73.4827C24.344 73.4895 24.344 73.4963 24.344 73.5031C24.344 73.5099 24.344 73.5167 24.344 73.5234C24.344 73.5302 24.344 73.537 24.344 73.5438C24.344 73.5506 24.344 73.5575 24.344 73.5643C24.344 73.5711 24.344 73.5779 24.344 73.5847C24.344 73.5915 24.344 73.5984 24.344 73.6052C24.344 73.612 24.344 73.6189 24.344 73.6257C24.344 73.6326 24.344 73.6394 24.344 73.6463C24.344 73.6531 24.344 73.66 24.344 73.6668C24.344 73.6737 24.344 73.6806 24.344 73.6874C24.344 73.6943 24.344 73.7012 24.344 73.7081C24.344 73.715 24.344 73.7218 24.344 73.7287C24.344 73.7356 24.344 73.7425 24.344 73.7494C24.344 73.7563 24.344 73.7632 24.344 73.7701C24.344 73.7771 24.344 73.784 24.344 73.7909C24.344 73.7978 24.344 73.8047 24.344 73.8117C24.344 73.8186 24.344 73.8255 24.344 73.8325C24.344 73.8394 24.344 73.8464 24.344 73.8533C24.344 73.8603 24.344 73.8672 24.344 73.8742C24.344 73.8811 24.344 73.8881 24.344 73.8951C24.344 73.9021 24.344 73.909 24.344 73.916C24.344 73.923 24.344 73.93 24.344 73.937C24.344 73.944 24.344 73.951 24.344 73.958C24.344 73.965 24.344 73.972 24.344 73.979C24.344 73.986 24.344 73.993 24.344 74C24.344 74.007 24.344 74.0141 24.344 74.0211C24.344 74.0281 24.344 74.0352 24.344 74.0422C24.344 74.0492 24.344 74.0563 24.344 74.0633C24.344 74.0704 24.344 74.0775 24.344 74.0845C24.344 74.0916 24.344 74.0986 24.344 74.1057C24.344 74.1128 24.344 74.1199 24.344 74.1269C24.344 74.134 24.344 74.1411 24.344 74.1482C24.344 74.1553 24.344 74.1624 24.344 74.1695C24.344 74.1766 24.344 74.1837 24.344 74.1908C24.344 74.1979 24.344 74.205 24.344 74.2121C24.344 74.2192 24.344 74.2264 24.344 74.2335C24.344 74.2406 24.344 74.2478 24.344 74.2549C24.344 74.262 24.344 74.2692 24.344 74.2763C24.344 74.2835 24.344 74.2906 24.344 74.2978C24.344 74.305 24.344 74.3121 24.344 74.3193C24.344 74.3265 24.344 74.3336 24.344 74.3408C24.344 74.348 24.344 74.3552 24.344 74.3624C24.344 74.3696 24.344 74.3767 24.344 74.3839C24.344 74.3911 24.344 74.3983 24.344 74.4056C24.344 74.4128 24.344 74.42 24.344 74.4272C24.344 74.4344 24.344 74.4416 24.344 74.4489C24.344 74.4561 24.344 74.4633 24.344 74.4706C24.344 74.4778 24.344 74.485 24.344 74.4923C24.344 74.4995 24.344 74.5068 24.344 74.5141C24.344 74.5213 24.344 74.5286 24.344 74.5358C24.344 74.5431 24.344 74.5504 24.344 74.5577C24.344 74.5649 24.344 74.5722 24.344 74.5795C24.344 74.5868 24.344 74.5941 24.344 74.6014C24.344 74.6087 24.344 74.616 24.344 74.6233C24.344 74.6306 24.344 74.6379 24.344 74.6452C24.344 74.6525 24.344 74.6599 24.344 74.6672C24.344 74.6745 24.344 74.6819 24.344 74.6892C24.344 74.6965 24.344 74.7039 24.344 74.7112C24.344 74.7186 24.344 74.7259 24.344 74.7333C24.344 74.7406 24.344 74.748 24.344 74.7554C24.344 74.7627 24.344 74.7701 24.344 74.7775C24.344 74.7849 24.344 74.7922 24.344 74.7996C24.344 74.807 24.344 74.8144 24.344 74.8218C24.344 74.8292 24.344 74.8366 24.344 74.844C24.344 74.8514 24.344 74.8588 24.344 74.8662C24.344 74.8736 24.344 74.8811 24.344 74.8885C24.344 74.8959 24.344 74.9034 24.344 74.9108C24.344 74.9182 24.344 74.9257 24.344 74.9331C24.344 74.9406 24.344 74.948 24.344 74.9555C24.344 74.9629 24.344 74.9704 24.344 74.9778C24.344 74.9853 24.344 74.9928 24.344 75.0003C24.344 75.0077 24.344 75.0152 24.344 75.0227C24.344 75.0302 24.344 75.0377 24.344 75.0452C24.344 75.0527 24.344 75.0602 24.344 75.0677C24.344 75.0752 24.344 75.0827 24.344 75.0902C24.344 75.0977 24.344 75.1052 24.344 75.1128C24.344 75.1203 24.344 75.1278 24.344 75.1353C24.344 75.1429 24.344 75.1504 24.344 75.158C24.344 75.1655 24.344 75.1731 24.344 75.1806C24.344 75.1882 24.344 75.1957 24.344 75.2033C24.344 75.2109 24.344 75.2184 24.344 75.226C24.344 75.2336 24.344 75.2412 24.344 75.2487C24.344 75.2563 24.344 75.2639 24.344 75.2715C24.344 75.2791 24.344 75.2867 24.344 75.2943C24.344 75.3019 24.344 75.3095 24.344 75.3171C24.344 75.3247 24.344 75.3324 24.344 75.34C24.344 75.3476 24.344 75.3552 24.344 75.3629C24.344 75.3705 24.344 75.3781 24.344 75.3858C24.344 75.3934 24.344 75.4011 24.344 75.4087C24.344 75.4164 24.344 75.424 24.344 75.4317C24.344 75.4394 24.344 75.447 24.344 75.4547C24.344 75.4624 24.344 75.4701 24.344 75.4778C24.344 75.4854 24.344 75.4931 24.344 75.5008C24.344 75.5085 24.344 75.5162 24.344 75.5239C24.344 75.5316 24.344 75.5393 24.344 75.547C24.344 75.5547 24.344 75.5625 24.344 75.5702C24.344 75.5779 24.344 75.5856 24.344 75.5934C24.344 75.6011 24.344 75.6088 24.344 75.6166C24.344 75.6243 24.344 75.6321 24.344 75.6398C24.344 75.6476 24.344 75.6553 24.344 75.6631C24.344 75.6709 24.344 75.6786 24.344 75.6864C24.344 75.6942 24.344 75.7019 24.344 75.7097C24.344 75.7175 24.344 75.7253 24.344 75.7331C24.344 75.7409 24.344 75.7487 24.344 75.7565C24.344 75.7643 24.344 75.7721 24.344 75.7799C24.344 75.7877 24.344 75.7955 24.344 75.8033C24.344 75.8112 24.344 75.819 24.344 75.8268C24.344 75.8347 24.344 75.8425 24.344 75.8503C24.344 75.8582 24.344 75.866 24.344 75.8739C24.344 75.8817 24.344 75.8896 24.344 75.8974C24.344 75.9053 24.344 75.9132 24.344 75.921C24.344 75.9289 24.344 75.9368 24.344 75.9447C24.344 75.9526 24.344 75.9604 24.344 75.9683C24.344 75.9762 24.344 75.9841 24.344 75.992C24.344 75.9999 24.344 76.0078 24.344 76.0157C24.344 76.0236 24.344 76.0316 24.344 76.0395C24.344 76.0474 24.344 76.0553 24.344 76.0633C24.344 76.0712 24.344 76.0791 24.344 76.0871C24.344 76.095 24.344 76.1029 24.344 76.1109C24.344 76.1188 24.344 76.1268 24.344 76.1348C24.344 76.1427 24.344 76.1507 24.344 76.1587C24.344 76.1666 24.344 76.1746 24.344 76.1826C24.344 76.1906 24.344 76.1985 24.344 76.2065C24.344 76.2145 24.344 76.2225 24.344 76.2305C24.344 76.2385 24.344 76.2465 24.344 76.2545C24.344 76.2625 24.344 76.2706 24.344 76.2786C24.344 76.2866 24.344 76.2946 24.344 76.3026C24.344 76.3107 24.344 76.3187 24.344 76.3267C24.344 76.3348 24.344 76.3428 24.344 76.3509C24.344 76.3589 24.344 76.367 24.344 76.375C24.344 76.3831 24.344 76.3912 24.344 76.3992C24.344 76.4073 24.344 76.4154 24.344 76.4235C24.344 76.4315 24.344 76.4396 24.344 76.4477C24.344 76.4558 24.344 76.4639 24.344 76.472C24.344 76.4801 24.344 76.4882 24.344 76.4963C24.344 76.5044 24.344 76.5125 24.344 76.5206C24.344 76.5288 24.344 76.5369 24.344 76.545C24.344 76.5531 24.344 76.5613 24.344 76.5694C24.344 76.5775 24.344 76.5857 24.344 76.5938C24.344 76.602 24.344 76.6101 24.344 76.6183C24.344 76.6264 24.344 76.6346 24.344 76.6428C24.344 76.6509 24.344 76.6591 24.344 76.6673C24.344 76.6755 24.344 76.6837 24.344 76.6918C24.344 76.7 24.344 76.7082 24.344 76.7164C24.344 76.7246 24.344 76.7328 24.344 76.741C24.344 76.7492 24.344 76.7574 24.344 76.7657C24.344 76.7739 24.344 76.7821 24.344 76.7903C24.344 76.7986 24.344 76.8068 24.344 76.815C24.344 76.8233 24.344 76.8315 24.344 76.8398C24.344 76.848 24.344 76.8562 24.344 76.8645C24.344 76.8728 24.344 76.881 24.344 76.8893C24.344 76.8976 24.344 76.9058 24.344 76.9141C24.344 76.9224 24.344 76.9307 24.344 76.9389C24.344 76.9472 24.344 76.9555 24.344 76.9638C24.344 76.9721 24.344 76.9804 24.344 76.9887C24.344 76.997 24.344 77.0053 24.344 77.0137C24.344 77.022 24.344 77.0303 24.344 77.0386C24.344 77.0469 24.344 77.0553 24.344 77.0636C24.344 77.0719 24.344 77.0803 24.344 77.0886C24.344 77.097 24.344 77.1053 24.344 77.1137C24.344 77.122 24.344 77.1304 24.344 77.1388C24.344 77.1471 24.344 77.1555 24.344 77.1639C24.344 77.1722 24.344 77.1806 24.344 77.189C24.344 77.1974 24.344 77.2058 24.344 77.2142C24.344 77.2226 24.344 77.231 24.344 77.2394C24.344 77.2478 24.344 77.2562 24.344 77.2646C24.344 77.273 24.344 77.2814 24.344 77.2899C24.344 77.2983 24.344 77.3067 24.344 77.3152C24.344 77.3236 24.344 77.332 24.344 77.3405C24.344 77.3489 24.344 77.3574 24.344 77.3658C24.344 77.3743 24.344 77.3827 24.344 77.3912C24.344 77.3997 24.344 77.4081 24.344 77.4166C24.344 77.4251 24.344 77.4336 24.344 77.4421C24.344 77.4505 24.344 77.459 24.344 77.4675C24.344 77.476 24.344 77.4845 24.344 77.493C24.344 77.5015 24.344 77.51 24.344 77.5185C24.344 77.5271 24.344 77.5356 24.344 77.5441C24.344 77.5526 24.344 77.5611 24.344 77.5697C24.344 77.5782 24.344 77.5868 24.344 77.5953C24.344 77.6038 24.344 77.6124 24.344 77.6209C24.344 77.6295 24.344 77.6381 24.344 77.6466C24.344 77.6552 24.344 77.6637 24.344 77.6723C24.344 77.6809 24.344 77.6895 24.344 77.6981C24.344 77.7066 24.344 77.7152 24.344 77.7238C24.344 77.7324 24.344 77.741 24.344 77.7496C24.344 77.7582 24.344 77.7668 24.344 77.7754C24.344 77.784 24.344 77.7927 24.344 77.8013C24.344 77.8099 24.344 77.8185 24.344 77.8272C24.344 77.8358 24.344 77.8444 24.344 77.8531C24.344 77.8617 24.344 77.8704 24.344 77.879C24.344 77.8877 24.344 77.8963 24.344 77.905C24.344 77.9137 24.344 77.9223 24.344 77.931C24.344 77.9397 24.344 77.9483 24.344 77.957C24.344 77.9657 24.344 77.9744 24.344 77.9831C24.344 77.9918 24.344 78.0005 24.344 78.0092C24.344 78.0179 24.344 78.0266 24.344 78.0353C24.344 78.044 24.344 78.0527 24.344 78.0614C24.344 78.0702 24.344 78.0789 24.344 78.0876C24.344 78.0964 24.344 78.1051 24.344 78.1138C24.344 78.1226 24.344 78.1313 24.344 78.1401C24.344 78.1488 24.344 78.1576 24.344 78.1663C24.344 78.1751 24.344 78.1839 24.344 78.1926C24.344 78.2014 24.344 78.2102 24.344 78.219C24.344 78.2277 24.344 78.2365 24.344 78.2453C24.344 78.2541 24.344 78.2629 24.344 78.2717C24.344 78.2805 24.344 78.2893 24.344 78.2981C24.344 78.3069 24.344 78.3158 24.344 78.3246C24.344 78.3334 24.344 78.3422 24.344 78.351C24.344 78.3599 24.344 78.3687 24.344 78.3775C24.344 78.3864 24.344 78.3952 24.344 78.4041C24.344 78.4129 24.344 78.4218 24.344 78.4306C24.344 78.4395 24.344 78.4484 24.344 78.4572C24.344 78.4661 24.344 78.475 24.344 78.4839C24.344 78.4927 24.344 78.5016 24.344 78.5105C24.344 78.5194 24.344 78.5283 24.344 78.5372C24.344 78.5461 24.344 78.555 24.344 78.5639C24.344 78.5728 24.344 78.5817 24.344 78.5907C24.344 78.5996 24.344 78.6085 24.344 78.6174C24.344 78.6264 24.344 78.6353 24.344 78.6442C24.344 78.6532 24.344 78.6621 24.344 78.6711C24.344 78.68 24.344 78.689 24.344 78.6979C24.344 78.7069 24.344 78.7158 24.344 78.7248C24.344 78.7338 24.344 78.7428 24.344 78.7517C24.344 78.7607 24.344 78.7697 24.344 78.7787C24.344 78.7877 24.344 78.7967 24.344 78.8057C24.344 78.8147 24.344 78.8237 24.344 78.8327C24.344 78.8417 24.344 78.8507 24.344 78.8597C24.344 78.8687 24.344 78.8778 24.344 78.8868C24.344 78.8958 24.344 78.9048 24.344 78.9139C24.344 78.9229 24.344 78.932 24.344 78.941C24.344 78.9501 24.344 78.9591 24.344 78.9682C24.344 78.9772 24.344 78.9863 24.344 78.9954C24.344 79.0044 24.344 79.0135 24.344 79.0226C24.344 79.0316 24.344 79.0407 24.344 79.0498C24.344 79.0589 24.344 79.068 24.344 79.0771C24.344 79.0862 24.344 79.0953 24.344 79.1044C24.344 79.1135 24.344 79.1226 24.344 79.1317C24.344 79.1409 24.344 79.15 24.344 79.1591C24.344 79.1682 24.344 79.1774 24.344 79.1865C24.344 79.1956 24.344 79.2048 24.344 79.2139C24.344 79.2231 24.344 79.2322 24.344 79.2414C24.344 79.2505 24.344 79.2597 24.344 79.2689C24.344 79.278 24.344 79.2872 24.344 79.2964C24.344 79.3055 24.344 79.3147 24.344 79.3239C24.344 79.3331 24.344 79.3423 24.344 79.3515C24.344 79.3607 24.344 79.3699 24.344 79.3791C24.344 79.3883 24.344 79.3975 24.344 79.4067C24.344 79.4159 24.344 79.4252 24.344 79.4344C24.344 79.4436 24.344 79.4528 24.344 79.4621C24.344 79.4713 24.344 79.4806 24.344 79.4898C24.344 79.499 24.344 79.5083 24.344 79.5175C24.344 79.5268 24.344 79.5361 24.344 79.5453C24.344 79.5546 24.344 79.5639 24.344 79.5731C24.344 79.5824 24.344 79.5917 24.344 79.601C24.344 79.6103 24.344 79.6196 24.344 79.6288C24.344 79.6381 24.344 79.6474 24.344 79.6567C24.344 79.6661 24.344 79.6754 24.344 79.6847C24.344 79.694 24.344 79.7033 24.344 79.7126C24.344 79.722 24.344 79.7313 24.344 79.7406C24.344 79.75 24.344 79.7593 24.344 79.7686C24.344 79.778 24.344 79.7873 24.344 79.7967C24.344 79.806 24.344 79.8154 24.344 79.8248C24.344 79.8341 24.344 79.8435 24.344 79.8529C24.344 79.8622 24.344 79.8716 24.344 79.881C24.344 79.8904 24.344 79.8998 24.344 79.9092C24.344 79.9186 24.344 79.928 24.344 79.9374C24.344 79.9468 24.344 79.9562 24.344 79.9656C24.344 79.975 24.344 79.9844 24.344 79.9939C24.344 80.0033 24.344 80.0127 24.344 80.0221C24.344 80.0316 24.344 80.041 24.344 80.0505C24.344 80.0599 24.344 80.0693 24.344 80.0788C24.344 80.0882 24.344 80.0977 24.344 80.1072C24.344 80.1166 24.344 80.1261 24.344 80.1356C24.344 80.145 24.344 80.1545 24.344 80.164C24.344 80.1735 24.344 80.183 24.344 80.1925C24.344 80.202 24.344 80.2115 24.344 80.221C24.344 80.2305 24.344 80.24 24.344 80.2495C24.344 80.259 24.344 80.2685 24.344 80.278C24.344 80.2876 24.344 80.2971 24.344 80.3066C24.344 80.3161 24.344 80.3257 24.344 80.3352C24.344 80.3448 24.344 80.3543 24.344 80.3639C24.344 80.3734 24.344 80.383 24.344 80.3925C24.344 80.4021 24.344 80.4117 24.344 80.4212C24.344 80.4308 24.344 80.4404 24.344 80.45C24.344 80.4595 24.344 80.4691 24.344 80.4787C24.344 80.4883 24.344 80.4979 24.344 80.5075C24.344 80.5171 24.344 80.5267 24.344 80.5363C24.344 80.5459 24.344 80.5556 24.344 80.5652C24.344 80.5748 24.344 80.5844 24.344 80.5941C24.344 80.6037 24.344 80.6133 24.344 80.623C24.344 80.6326 24.344 80.6423 24.344 80.6519C24.344 80.6616 24.344 80.6712 24.344 80.6809C24.344 80.6905 24.344 80.7002 24.344 80.7099C24.344 80.7195 24.344 80.7292 24.344 80.7389C24.344 80.7486 24.344 80.7583 24.344 80.768C24.344 80.7776 24.344 80.7873 24.344 80.797C24.344 80.8067 24.344 80.8164 24.344 80.8262C24.344 80.8359 24.344 80.8456 24.344 80.8553C24.344 80.865 24.344 80.8747 24.344 80.8845C24.344 80.8942 24.344 80.9039 24.344 80.9137C24.344 80.9234 24.344 80.9332 24.344 80.9429C24.344 80.9527 24.344 80.9624 24.344 80.9722C24.344 80.9819 24.344 80.9917 24.344 81.0015C24.344 81.0112 24.344 81.021 24.344 81.0308C24.344 81.0406 24.344 81.0504 24.344 81.0602C24.344 81.0699 24.344 81.0797 24.344 81.0895C24.344 81.0993 24.344 81.1091 24.344 81.1189C24.344 81.1288 24.344 81.1386 24.344 81.1484C24.344 81.1582 24.344 81.168 24.344 81.1779C24.344 81.1877 24.344 81.1975 24.344 81.2074C24.344 81.2172 24.344 81.227 24.344 81.2369C24.344 81.2467 24.344 81.2566 24.344 81.2664C24.344 81.2763 24.344 81.2862 24.344 81.296C24.344 81.3059 24.344 81.3158 24.344 81.3257C24.344 81.3355 24.344 81.3454 24.344 81.3553C24.344 81.3652 24.344 81.3751 24.344 81.385C24.344 81.3949 24.344 81.4048 24.344 81.4147C24.344 81.4246 24.344 81.4345 24.344 81.4444C24.344 81.4544 24.344 81.4643 24.344 81.4742C24.344 81.4841 24.344 81.4941 24.344 81.504H26.344C26.344 81.4941 26.344 81.4841 26.344 81.4742C26.344 81.4643 26.344 81.4544 26.344 81.4444C26.344 81.4345 26.344 81.4246 26.344 81.4147C26.344 81.4048 26.344 81.3949 26.344 81.385C26.344 81.3751 26.344 81.3652 26.344 81.3553C26.344 81.3454 26.344 81.3355 26.344 81.3257C26.344 81.3158 26.344 81.3059 26.344 81.296C26.344 81.2862 26.344 81.2763 26.344 81.2664C26.344 81.2566 26.344 81.2467 26.344 81.2369C26.344 81.227 26.344 81.2172 26.344 81.2074C26.344 81.1975 26.344 81.1877 26.344 81.1779C26.344 81.168 26.344 81.1582 26.344 81.1484C26.344 81.1386 26.344 81.1288 26.344 81.1189C26.344 81.1091 26.344 81.0993 26.344 81.0895C26.344 81.0797 26.344 81.0699 26.344 81.0602C26.344 81.0504 26.344 81.0406 26.344 81.0308C26.344 81.021 26.344 81.0112 26.344 81.0015C26.344 80.9917 26.344 80.9819 26.344 80.9722C26.344 80.9624 26.344 80.9527 26.344 80.9429C26.344 80.9332 26.344 80.9234 26.344 80.9137C26.344 80.9039 26.344 80.8942 26.344 80.8845C26.344 80.8747 26.344 80.865 26.344 80.8553C26.344 80.8456 26.344 80.8359 26.344 80.8262C26.344 80.8164 26.344 80.8067 26.344 80.797C26.344 80.7873 26.344 80.7776 26.344 80.768C26.344 80.7583 26.344 80.7486 26.344 80.7389C26.344 80.7292 26.344 80.7195 26.344 80.7099C26.344 80.7002 26.344 80.6905 26.344 80.6809C26.344 80.6712 26.344 80.6616 26.344 80.6519C26.344 80.6423 26.344 80.6326 26.344 80.623C26.344 80.6133 26.344 80.6037 26.344 80.5941C26.344 80.5844 26.344 80.5748 26.344 80.5652C26.344 80.5556 26.344 80.5459 26.344 80.5363C26.344 80.5267 26.344 80.5171 26.344 80.5075C26.344 80.4979 26.344 80.4883 26.344 80.4787C26.344 80.4691 26.344 80.4595 26.344 80.45C26.344 80.4404 26.344 80.4308 26.344 80.4212C26.344 80.4117 26.344 80.4021 26.344 80.3925C26.344 80.383 26.344 80.3734 26.344 80.3639C26.344 80.3543 26.344 80.3448 26.344 80.3352C26.344 80.3257 26.344 80.3161 26.344 80.3066C26.344 80.2971 26.344 80.2876 26.344 80.278C26.344 80.2685 26.344 80.259 26.344 80.2495C26.344 80.24 26.344 80.2305 26.344 80.221C26.344 80.2115 26.344 80.202 26.344 80.1925C26.344 80.183 26.344 80.1735 26.344 80.164C26.344 80.1545 26.344 80.145 26.344 80.1356C26.344 80.1261 26.344 80.1166 26.344 80.1072C26.344 80.0977 26.344 80.0882 26.344 80.0788C26.344 80.0693 26.344 80.0599 26.344 80.0505C26.344 80.041 26.344 80.0316 26.344 80.0221C26.344 80.0127 26.344 80.0033 26.344 79.9939C26.344 79.9844 26.344 79.975 26.344 79.9656C26.344 79.9562 26.344 79.9468 26.344 79.9374C26.344 79.928 26.344 79.9186 26.344 79.9092C26.344 79.8998 26.344 79.8904 26.344 79.881C26.344 79.8716 26.344 79.8622 26.344 79.8529C26.344 79.8435 26.344 79.8341 26.344 79.8248C26.344 79.8154 26.344 79.806 26.344 79.7967C26.344 79.7873 26.344 79.778 26.344 79.7686C26.344 79.7593 26.344 79.75 26.344 79.7406C26.344 79.7313 26.344 79.722 26.344 79.7126C26.344 79.7033 26.344 79.694 26.344 79.6847C26.344 79.6754 26.344 79.6661 26.344 79.6567C26.344 79.6474 26.344 79.6381 26.344 79.6288C26.344 79.6196 26.344 79.6103 26.344 79.601C26.344 79.5917 26.344 79.5824 26.344 79.5731C26.344 79.5639 26.344 79.5546 26.344 79.5453C26.344 79.5361 26.344 79.5268 26.344 79.5175C26.344 79.5083 26.344 79.499 26.344 79.4898C26.344 79.4806 26.344 79.4713 26.344 79.4621C26.344 79.4528 26.344 79.4436 26.344 79.4344C26.344 79.4252 26.344 79.4159 26.344 79.4067C26.344 79.3975 26.344 79.3883 26.344 79.3791C26.344 79.3699 26.344 79.3607 26.344 79.3515C26.344 79.3423 26.344 79.3331 26.344 79.3239C26.344 79.3147 26.344 79.3055 26.344 79.2964C26.344 79.2872 26.344 79.278 26.344 79.2689C26.344 79.2597 26.344 79.2505 26.344 79.2414C26.344 79.2322 26.344 79.2231 26.344 79.2139C26.344 79.2048 26.344 79.1956 26.344 79.1865C26.344 79.1774 26.344 79.1682 26.344 79.1591C26.344 79.15 26.344 79.1409 26.344 79.1317C26.344 79.1226 26.344 79.1135 26.344 79.1044C26.344 79.0953 26.344 79.0862 26.344 79.0771C26.344 79.068 26.344 79.0589 26.344 79.0498C26.344 79.0407 26.344 79.0316 26.344 79.0226C26.344 79.0135 26.344 79.0044 26.344 78.9954C26.344 78.9863 26.344 78.9772 26.344 78.9682C26.344 78.9591 26.344 78.9501 26.344 78.941C26.344 78.932 26.344 78.9229 26.344 78.9139C26.344 78.9048 26.344 78.8958 26.344 78.8868C26.344 78.8778 26.344 78.8687 26.344 78.8597C26.344 78.8507 26.344 78.8417 26.344 78.8327C26.344 78.8237 26.344 78.8147 26.344 78.8057C26.344 78.7967 26.344 78.7877 26.344 78.7787C26.344 78.7697 26.344 78.7607 26.344 78.7517C26.344 78.7428 26.344 78.7338 26.344 78.7248C26.344 78.7158 26.344 78.7069 26.344 78.6979C26.344 78.689 26.344 78.68 26.344 78.6711C26.344 78.6621 26.344 78.6532 26.344 78.6442C26.344 78.6353 26.344 78.6264 26.344 78.6174C26.344 78.6085 26.344 78.5996 26.344 78.5907C26.344 78.5817 26.344 78.5728 26.344 78.5639C26.344 78.555 26.344 78.5461 26.344 78.5372C26.344 78.5283 26.344 78.5194 26.344 78.5105C26.344 78.5016 26.344 78.4927 26.344 78.4839C26.344 78.475 26.344 78.4661 26.344 78.4572C26.344 78.4484 26.344 78.4395 26.344 78.4306C26.344 78.4218 26.344 78.4129 26.344 78.4041C26.344 78.3952 26.344 78.3864 26.344 78.3775C26.344 78.3687 26.344 78.3599 26.344 78.351C26.344 78.3422 26.344 78.3334 26.344 78.3246C26.344 78.3158 26.344 78.3069 26.344 78.2981C26.344 78.2893 26.344 78.2805 26.344 78.2717C26.344 78.2629 26.344 78.2541 26.344 78.2453C26.344 78.2365 26.344 78.2277 26.344 78.219C26.344 78.2102 26.344 78.2014 26.344 78.1926C26.344 78.1839 26.344 78.1751 26.344 78.1663C26.344 78.1576 26.344 78.1488 26.344 78.1401C26.344 78.1313 26.344 78.1226 26.344 78.1138C26.344 78.1051 26.344 78.0964 26.344 78.0876C26.344 78.0789 26.344 78.0702 26.344 78.0614C26.344 78.0527 26.344 78.044 26.344 78.0353C26.344 78.0266 26.344 78.0179 26.344 78.0092C26.344 78.0005 26.344 77.9918 26.344 77.9831C26.344 77.9744 26.344 77.9657 26.344 77.957C26.344 77.9483 26.344 77.9397 26.344 77.931C26.344 77.9223 26.344 77.9137 26.344 77.905C26.344 77.8963 26.344 77.8877 26.344 77.879C26.344 77.8704 26.344 77.8617 26.344 77.8531C26.344 77.8444 26.344 77.8358 26.344 77.8272C26.344 77.8185 26.344 77.8099 26.344 77.8013C26.344 77.7927 26.344 77.784 26.344 77.7754C26.344 77.7668 26.344 77.7582 26.344 77.7496C26.344 77.741 26.344 77.7324 26.344 77.7238C26.344 77.7152 26.344 77.7066 26.344 77.6981C26.344 77.6895 26.344 77.6809 26.344 77.6723C26.344 77.6637 26.344 77.6552 26.344 77.6466C26.344 77.6381 26.344 77.6295 26.344 77.6209C26.344 77.6124 26.344 77.6038 26.344 77.5953C26.344 77.5868 26.344 77.5782 26.344 77.5697C26.344 77.5611 26.344 77.5526 26.344 77.5441C26.344 77.5356 26.344 77.5271 26.344 77.5185C26.344 77.51 26.344 77.5015 26.344 77.493C26.344 77.4845 26.344 77.476 26.344 77.4675C26.344 77.459 26.344 77.4505 26.344 77.4421C26.344 77.4336 26.344 77.4251 26.344 77.4166C26.344 77.4081 26.344 77.3997 26.344 77.3912C26.344 77.3827 26.344 77.3743 26.344 77.3658C26.344 77.3574 26.344 77.3489 26.344 77.3405C26.344 77.332 26.344 77.3236 26.344 77.3152C26.344 77.3067 26.344 77.2983 26.344 77.2899C26.344 77.2814 26.344 77.273 26.344 77.2646C26.344 77.2562 26.344 77.2478 26.344 77.2394C26.344 77.231 26.344 77.2226 26.344 77.2142C26.344 77.2058 26.344 77.1974 26.344 77.189C26.344 77.1806 26.344 77.1722 26.344 77.1639C26.344 77.1555 26.344 77.1471 26.344 77.1388C26.344 77.1304 26.344 77.122 26.344 77.1137C26.344 77.1053 26.344 77.097 26.344 77.0886C26.344 77.0803 26.344 77.0719 26.344 77.0636C26.344 77.0553 26.344 77.0469 26.344 77.0386C26.344 77.0303 26.344 77.022 26.344 77.0137C26.344 77.0053 26.344 76.997 26.344 76.9887C26.344 76.9804 26.344 76.9721 26.344 76.9638C26.344 76.9555 26.344 76.9472 26.344 76.9389C26.344 76.9307 26.344 76.9224 26.344 76.9141C26.344 76.9058 26.344 76.8976 26.344 76.8893C26.344 76.881 26.344 76.8728 26.344 76.8645C26.344 76.8562 26.344 76.848 26.344 76.8398C26.344 76.8315 26.344 76.8233 26.344 76.815C26.344 76.8068 26.344 76.7986 26.344 76.7903C26.344 76.7821 26.344 76.7739 26.344 76.7657C26.344 76.7574 26.344 76.7492 26.344 76.741C26.344 76.7328 26.344 76.7246 26.344 76.7164C26.344 76.7082 26.344 76.7 26.344 76.6918C26.344 76.6837 26.344 76.6755 26.344 76.6673C26.344 76.6591 26.344 76.6509 26.344 76.6428C26.344 76.6346 26.344 76.6264 26.344 76.6183C26.344 76.6101 26.344 76.602 26.344 76.5938C26.344 76.5857 26.344 76.5775 26.344 76.5694C26.344 76.5613 26.344 76.5531 26.344 76.545C26.344 76.5369 26.344 76.5288 26.344 76.5206C26.344 76.5125 26.344 76.5044 26.344 76.4963C26.344 76.4882 26.344 76.4801 26.344 76.472C26.344 76.4639 26.344 76.4558 26.344 76.4477C26.344 76.4396 26.344 76.4315 26.344 76.4235C26.344 76.4154 26.344 76.4073 26.344 76.3992C26.344 76.3912 26.344 76.3831 26.344 76.375C26.344 76.367 26.344 76.3589 26.344 76.3509C26.344 76.3428 26.344 76.3348 26.344 76.3267C26.344 76.3187 26.344 76.3107 26.344 76.3026C26.344 76.2946 26.344 76.2866 26.344 76.2786C26.344 76.2706 26.344 76.2625 26.344 76.2545C26.344 76.2465 26.344 76.2385 26.344 76.2305C26.344 76.2225 26.344 76.2145 26.344 76.2065C26.344 76.1985 26.344 76.1906 26.344 76.1826C26.344 76.1746 26.344 76.1666 26.344 76.1587C26.344 76.1507 26.344 76.1427 26.344 76.1348C26.344 76.1268 26.344 76.1188 26.344 76.1109C26.344 76.1029 26.344 76.095 26.344 76.0871C26.344 76.0791 26.344 76.0712 26.344 76.0633C26.344 76.0553 26.344 76.0474 26.344 76.0395C26.344 76.0316 26.344 76.0236 26.344 76.0157C26.344 76.0078 26.344 75.9999 26.344 75.992C26.344 75.9841 26.344 75.9762 26.344 75.9683C26.344 75.9604 26.344 75.9526 26.344 75.9447C26.344 75.9368 26.344 75.9289 26.344 75.921C26.344 75.9132 26.344 75.9053 26.344 75.8974C26.344 75.8896 26.344 75.8817 26.344 75.8739C26.344 75.866 26.344 75.8582 26.344 75.8503C26.344 75.8425 26.344 75.8347 26.344 75.8268C26.344 75.819 26.344 75.8112 26.344 75.8033C26.344 75.7955 26.344 75.7877 26.344 75.7799C26.344 75.7721 26.344 75.7643 26.344 75.7565C26.344 75.7487 26.344 75.7409 26.344 75.7331C26.344 75.7253 26.344 75.7175 26.344 75.7097C26.344 75.7019 26.344 75.6942 26.344 75.6864C26.344 75.6786 26.344 75.6709 26.344 75.6631C26.344 75.6553 26.344 75.6476 26.344 75.6398C26.344 75.6321 26.344 75.6243 26.344 75.6166C26.344 75.6088 26.344 75.6011 26.344 75.5934C26.344 75.5856 26.344 75.5779 26.344 75.5702C26.344 75.5625 26.344 75.5547 26.344 75.547C26.344 75.5393 26.344 75.5316 26.344 75.5239C26.344 75.5162 26.344 75.5085 26.344 75.5008C26.344 75.4931 26.344 75.4854 26.344 75.4778C26.344 75.4701 26.344 75.4624 26.344 75.4547C26.344 75.447 26.344 75.4394 26.344 75.4317C26.344 75.424 26.344 75.4164 26.344 75.4087C26.344 75.4011 26.344 75.3934 26.344 75.3858C26.344 75.3781 26.344 75.3705 26.344 75.3629C26.344 75.3552 26.344 75.3476 26.344 75.34C26.344 75.3324 26.344 75.3247 26.344 75.3171C26.344 75.3095 26.344 75.3019 26.344 75.2943C26.344 75.2867 26.344 75.2791 26.344 75.2715C26.344 75.2639 26.344 75.2563 26.344 75.2487C26.344 75.2412 26.344 75.2336 26.344 75.226C26.344 75.2184 26.344 75.2109 26.344 75.2033C26.344 75.1957 26.344 75.1882 26.344 75.1806C26.344 75.1731 26.344 75.1655 26.344 75.158C26.344 75.1504 26.344 75.1429 26.344 75.1353C26.344 75.1278 26.344 75.1203 26.344 75.1128C26.344 75.1052 26.344 75.0977 26.344 75.0902C26.344 75.0827 26.344 75.0752 26.344 75.0677C26.344 75.0602 26.344 75.0527 26.344 75.0452C26.344 75.0377 26.344 75.0302 26.344 75.0227C26.344 75.0152 26.344 75.0077 26.344 75.0003C26.344 74.9928 26.344 74.9853 26.344 74.9778C26.344 74.9704 26.344 74.9629 26.344 74.9555C26.344 74.948 26.344 74.9406 26.344 74.9331C26.344 74.9257 26.344 74.9182 26.344 74.9108C26.344 74.9034 26.344 74.8959 26.344 74.8885C26.344 74.8811 26.344 74.8736 26.344 74.8662C26.344 74.8588 26.344 74.8514 26.344 74.844C26.344 74.8366 26.344 74.8292 26.344 74.8218C26.344 74.8144 26.344 74.807 26.344 74.7996C26.344 74.7922 26.344 74.7849 26.344 74.7775C26.344 74.7701 26.344 74.7627 26.344 74.7554C26.344 74.748 26.344 74.7406 26.344 74.7333C26.344 74.7259 26.344 74.7186 26.344 74.7112C26.344 74.7039 26.344 74.6965 26.344 74.6892C26.344 74.6819 26.344 74.6745 26.344 74.6672C26.344 74.6599 26.344 74.6525 26.344 74.6452C26.344 74.6379 26.344 74.6306 26.344 74.6233C26.344 74.616 26.344 74.6087 26.344 74.6014C26.344 74.5941 26.344 74.5868 26.344 74.5795C26.344 74.5722 26.344 74.5649 26.344 74.5577C26.344 74.5504 26.344 74.5431 26.344 74.5358C26.344 74.5286 26.344 74.5213 26.344 74.5141C26.344 74.5068 26.344 74.4995 26.344 74.4923C26.344 74.485 26.344 74.4778 26.344 74.4706C26.344 74.4633 26.344 74.4561 26.344 74.4489C26.344 74.4416 26.344 74.4344 26.344 74.4272C26.344 74.42 26.344 74.4128 26.344 74.4056C26.344 74.3983 26.344 74.3911 26.344 74.3839C26.344 74.3767 26.344 74.3696 26.344 74.3624C26.344 74.3552 26.344 74.348 26.344 74.3408C26.344 74.3336 26.344 74.3265 26.344 74.3193C26.344 74.3121 26.344 74.305 26.344 74.2978C26.344 74.2906 26.344 74.2835 26.344 74.2763C26.344 74.2692 26.344 74.262 26.344 74.2549C26.344 74.2478 26.344 74.2406 26.344 74.2335C26.344 74.2264 26.344 74.2192 26.344 74.2121C26.344 74.205 26.344 74.1979 26.344 74.1908C26.344 74.1837 26.344 74.1766 26.344 74.1695C26.344 74.1624 26.344 74.1553 26.344 74.1482C26.344 74.1411 26.344 74.134 26.344 74.1269C26.344 74.1199 26.344 74.1128 26.344 74.1057C26.344 74.0986 26.344 74.0916 26.344 74.0845C26.344 74.0775 26.344 74.0704 26.344 74.0633C26.344 74.0563 26.344 74.0492 26.344 74.0422C26.344 74.0352 26.344 74.0281 26.344 74.0211C26.344 74.0141 26.344 74.007 26.344 74C26.344 73.993 26.344 73.986 26.344 73.979C26.344 73.972 26.344 73.965 26.344 73.958C26.344 73.951 26.344 73.944 26.344 73.937C26.344 73.93 26.344 73.923 26.344 73.916C26.344 73.909 26.344 73.9021 26.344 73.8951C26.344 73.8881 26.344 73.8811 26.344 73.8742C26.344 73.8672 26.344 73.8603 26.344 73.8533C26.344 73.8464 26.344 73.8394 26.344 73.8325C26.344 73.8255 26.344 73.8186 26.344 73.8117C26.344 73.8047 26.344 73.7978 26.344 73.7909C26.344 73.784 26.344 73.7771 26.344 73.7701C26.344 73.7632 26.344 73.7563 26.344 73.7494C26.344 73.7425 26.344 73.7356 26.344 73.7287C26.344 73.7218 26.344 73.715 26.344 73.7081C26.344 73.7012 26.344 73.6943 26.344 73.6874C26.344 73.6806 26.344 73.6737 26.344 73.6668C26.344 73.66 26.344 73.6531 26.344 73.6463C26.344 73.6394 26.344 73.6326 26.344 73.6257C26.344 73.6189 26.344 73.612 26.344 73.6052C26.344 73.5984 26.344 73.5915 26.344 73.5847C26.344 73.5779 26.344 73.5711 26.344 73.5643C26.344 73.5575 26.344 73.5506 26.344 73.5438C26.344 73.537 26.344 73.5302 26.344 73.5234C26.344 73.5167 26.344 73.5099 26.344 73.5031C26.344 73.4963 26.344 73.4895 26.344 73.4827C26.344 73.476 26.344 73.4692 26.344 73.4624C26.344 73.4557 26.344 73.4489 26.344 73.4422C26.344 73.4354 26.344 73.4287 26.344 73.4219C26.344 73.4152 26.344 73.4084 26.344 73.4017C26.344 73.395 26.344 73.3882 26.344 73.3815C26.344 73.3748 26.344 73.3681 26.344 73.3614C26.344 73.3546 26.344 73.3479 26.344 73.3412C26.344 73.3345 26.344 73.3278 26.344 73.3211C26.344 73.3144 26.344 73.3078 26.344 73.3011C26.344 73.2944 26.344 73.2877 26.344 73.281C26.344 73.2744 26.344 73.2677 26.344 73.261C26.344 73.2544 26.344 73.2477 26.344 73.241C26.344 73.2344 26.344 73.2277 26.344 73.2211C26.344 73.2144 26.344 73.2078 26.344 73.2012C26.344 73.1945 26.344 73.1879 26.344 73.1813C26.344 73.1747 26.344 73.168 26.344 73.1614C26.344 73.1548 26.344 73.1482 26.344 73.1416C26.344 73.135 26.344 73.1284 26.344 73.1218C26.344 73.1152 26.344 73.1086 26.344 73.102C26.344 73.0954 26.344 73.0889 26.344 73.0823C26.344 73.0757 26.344 73.0691 26.344 73.0626C26.344 73.056 26.344 73.0494 26.344 73.0429C26.344 73.0363 26.344 73.0298 26.344 73.0232C26.344 73.0167 26.344 73.0101 26.344 73.0036C26.344 72.9971 26.344 72.9905 26.344 72.984C26.344 72.9775 26.344 72.971 26.344 72.9644C26.344 72.9579 26.344 72.9514 26.344 72.9449C26.344 72.9384 26.344 72.9319 26.344 72.9254C26.344 72.9189 26.344 72.9124 26.344 72.9059C26.344 72.8994 26.344 72.893 26.344 72.8865C26.344 72.88 26.344 72.8735 26.344 72.8671C26.344 72.8606 26.344 72.8541 26.344 72.8477C26.344 72.8412 26.344 72.8348 26.344 72.8283C26.344 72.8219 26.344 72.8154 26.344 72.809C26.344 72.8026 26.344 72.7961 26.344 72.7897C26.344 72.7833 26.344 72.7769 26.344 72.7704C26.344 72.764 26.344 72.7576 26.344 72.7512C26.344 72.7448 26.344 72.7384 26.344 72.732C26.344 72.7256 26.344 72.7192 26.344 72.7128C26.344 72.7064 26.344 72.7 26.344 72.6937C26.344 72.6873 26.344 72.6809 26.344 72.6745C26.344 72.6682 26.344 72.6618 26.344 72.6555C26.344 72.6491 26.344 72.6427 26.344 72.6364C26.344 72.6301 26.344 72.6237 26.344 72.6174C26.344 72.611 26.344 72.6047 26.344 72.5984C26.344 72.592 26.344 72.5857 26.344 72.5794C26.344 72.5731 26.344 72.5668 26.344 72.5605C26.344 72.5541 26.344 72.5478 26.344 72.5415C26.344 72.5352 26.344 72.529 26.344 72.5227C26.344 72.5164 26.344 72.5101 26.344 72.5038C26.344 72.4975 26.344 72.4913 26.344 72.485C26.344 72.4787 26.344 72.4725 26.344 72.4662C26.344 72.4599 26.344 72.4537 26.344 72.4474C26.344 72.4412 26.344 72.4349 26.344 72.4287C26.344 72.4225 26.344 72.4162 26.344 72.41C26.344 72.4038 26.344 72.3975 26.344 72.3913C26.344 72.3851 26.344 72.3789 26.344 72.3727C26.344 72.3665 26.344 72.3603 26.344 72.3541C26.344 72.3479 26.344 72.3417 26.344 72.3355C26.344 72.3293 26.344 72.3231 26.344 72.3169C26.344 72.3107 26.344 72.3046 26.344 72.2984C26.344 72.2922 26.344 72.2861 26.344 72.2799C26.344 72.2737 26.344 72.2676 26.344 72.2614C26.344 72.2553 26.344 72.2491 26.344 72.243C26.344 72.2369 26.344 72.2307 26.344 72.2246C26.344 72.2185 26.344 72.2123 26.344 72.2062C26.344 72.2001 26.344 72.194 26.344 72.1879C26.344 72.1818 26.344 72.1757 26.344 72.1695C26.344 72.1634 26.344 72.1573 26.344 72.1513C26.344 72.1452 26.344 72.1391 26.344 72.133C26.344 72.1269 26.344 72.1208 26.344 72.1148C26.344 72.1087 26.344 72.1026 26.344 72.0966C26.344 72.0905 26.344 72.0845 26.344 72.0784C26.344 72.0723 26.344 72.0663 26.344 72.0603C26.344 72.0542 26.344 72.0482 26.344 72.0422C26.344 72.0361 26.344 72.0301 26.344 72.0241C26.344 72.0181 26.344 72.012 26.344 72.006C26.344 72 26.344 71.994 26.344 71.988C26.344 71.982 26.344 71.976 26.344 71.97C26.344 71.964 26.344 71.958 26.344 71.952C26.344 71.9461 26.344 71.9401 26.344 71.9341C26.344 71.9281 26.344 71.9222 26.344 71.9162C26.344 71.9102 26.344 71.9043 26.344 71.8983C26.344 71.8924 26.344 71.8864 26.344 71.8805C26.344 71.8745 26.344 71.8686 26.344 71.8627C26.344 71.8567 26.344 71.8508 26.344 71.8449C26.344 71.839 26.344 71.8331 26.344 71.8271C26.344 71.8212 26.344 71.8153 26.344 71.8094C26.344 71.8035 26.344 71.7976 26.344 71.7917C26.344 71.7858 26.344 71.7799 26.344 71.7741C26.344 71.7682 26.344 71.7623 26.344 71.7564C26.344 71.7505 26.344 71.7447 26.344 71.7388C26.344 71.7329 26.344 71.7271 26.344 71.7212C26.344 71.7154 26.344 71.7095 26.344 71.7037C26.344 71.6978 26.344 71.692 26.344 71.6862C26.344 71.6803 26.344 71.6745 26.344 71.6687C26.344 71.6629 26.344 71.657 26.344 71.6512C26.344 71.6454 26.344 71.6396 26.344 71.6338C26.344 71.628 26.344 71.6222 26.344 71.6164C26.344 71.6106 26.344 71.6048 26.344 71.599C26.344 71.5932 26.344 71.5875 26.344 71.5817C26.344 71.5759 26.344 71.5701 26.344 71.5644C26.344 71.5586 26.344 71.5529 26.344 71.5471C26.344 71.5414 26.344 71.5356 26.344 71.5299C26.344 71.5241 26.344 71.5184 26.344 71.5126C26.344 71.5069 26.344 71.5012 26.344 71.4954C26.344 71.4897 26.344 71.484 26.344 71.4783C26.344 71.4726 26.344 71.4669 26.344 71.4612C26.344 71.4554 26.344 71.4497 26.344 71.444C26.344 71.4384 26.344 71.4327 26.344 71.427C26.344 71.4213 26.344 71.4156 26.344 71.4099C26.344 71.4043 26.344 71.3986 26.344 71.3929C26.344 71.3873 26.344 71.3816 26.344 71.3759C26.344 71.3703 26.344 71.3646 26.344 71.359C26.344 71.3533 26.344 71.3477 26.344 71.3421C26.344 71.3364 26.344 71.3308 26.344 71.3252C26.344 71.3195 26.344 71.3139 26.344 71.3083C26.344 71.3027 26.344 71.2971 26.344 71.2915C26.344 71.2859 26.344 71.2803 26.344 71.2747C26.344 71.2691 26.344 71.2635 26.344 71.2579C26.344 71.2523 26.344 71.2467 26.344 71.2411C26.344 71.2356 26.344 71.23 26.344 71.2244C26.344 71.2189 26.344 71.2133 26.344 71.2077C26.344 71.2022 26.344 71.1966 26.344 71.1911C26.344 71.1855 26.344 71.18 26.344 71.1745C26.344 71.1689 26.344 71.1634 26.344 71.1579C26.344 71.1523 26.344 71.1468 26.344 71.1413C26.344 71.1358 26.344 71.1303 26.344 71.1247C26.344 71.1192 26.344 71.1137 26.344 71.1082C26.344 71.1027 26.344 71.0973 26.344 71.0918C26.344 71.0863 26.344 71.0808 26.344 71.0753C26.344 71.0698 26.344 71.0644 26.344 71.0589C26.344 71.0534 26.344 71.048 26.344 71.0425C26.344 71.037 26.344 71.0316 26.344 71.0261C26.344 71.0207 26.344 71.0153 26.344 71.0098C26.344 71.0044 26.344 70.9989 26.344 70.9935C26.344 70.9881 26.344 70.9827 26.344 70.9772C26.344 70.9718 26.344 70.9664 26.344 70.961C26.344 70.9556 26.344 70.9502 26.344 70.9448C26.344 70.9394 26.344 70.934 26.344 70.9286C26.344 70.9232 26.344 70.9178 26.344 70.9125C26.344 70.9071 26.344 70.9017 26.344 70.8963C26.344 70.891 26.344 70.8856 26.344 70.8802C26.344 70.8749 26.344 70.8695 26.344 70.8642C26.344 70.8588 26.344 70.8535 26.344 70.8481C26.344 70.8428 26.344 70.8375 26.344 70.8321C26.344 70.8268 26.344 70.8215 26.344 70.8162C26.344 70.8108 26.344 70.8055 26.344 70.8002C26.344 70.7949 26.344 70.7896 26.344 70.7843C26.344 70.779 26.344 70.7737 26.344 70.7684C26.344 70.7631 26.344 70.7578 26.344 70.7526C26.344 70.7473 26.344 70.742 26.344 70.7367C26.344 70.7315 26.344 70.7262 26.344 70.7209C26.344 70.7157 26.344 70.7104 26.344 70.7052C26.344 70.6999 26.344 70.6947 26.344 70.6894C26.344 70.6842 26.344 70.6789 26.344 70.6737C26.344 70.6685 26.344 70.6633 26.344 70.658C26.344 70.6528 26.344 70.6476 26.344 70.6424C26.344 70.6372 26.344 70.632 26.344 70.6268C26.344 70.6216 26.344 70.6164 26.344 70.6112C26.344 70.606 26.344 70.6008 26.344 70.5956C26.344 70.5904 26.344 70.5853 26.344 70.5801C26.344 70.5749 26.344 70.5698 26.344 70.5646C26.344 70.5594 26.344 70.5543 26.344 70.5491C26.344 70.544 26.344 70.5388 26.344 70.5337C26.344 70.5285 26.344 70.5234 26.344 70.5183C26.344 70.5131 26.344 70.508 26.344 70.5029C26.344 70.4978 26.344 70.4927 26.344 70.4875C26.344 70.4824 26.344 70.4773 26.344 70.4722C26.344 70.4671 26.344 70.462 26.344 70.4569C26.344 70.4518 26.344 70.4467 26.344 70.4417C26.344 70.4366 26.344 70.4315 26.344 70.4264C26.344 70.4214 26.344 70.4163 26.344 70.4112C26.344 70.4062 26.344 70.4011 26.344 70.3961C26.344 70.391 26.344 70.386 26.344 70.3809C26.344 70.3759 26.344 70.3708 26.344 70.3658C26.344 70.3608 26.344 70.3557 26.344 70.3507C26.344 70.3457 26.344 70.3407 26.344 70.3357C26.344 70.3306 26.344 70.3256 26.344 70.3206C26.344 70.3156 26.344 70.3106 26.344 70.3056C26.344 70.3006 26.344 70.2957 26.344 70.2907C26.344 70.2857 26.344 70.2807 26.344 70.2757C26.344 70.2708 26.344 70.2658 26.344 70.2608C26.344 70.2559 26.344 70.2509 26.344 70.2459C26.344 70.241 26.344 70.236 26.344 70.2311C26.344 70.2262 26.344 70.2212 26.344 70.2163C26.344 70.2113 26.344 70.2064 26.344 70.2015C26.344 70.1966 26.344 70.1917 26.344 70.1867C26.344 70.1818 26.344 70.1769 26.344 70.172C26.344 70.1671 26.344 70.1622 26.344 70.1573C26.344 70.1524 26.344 70.1475 26.344 70.1426C26.344 70.1378 26.344 70.1329 26.344 70.128H24.344ZM24.344 81.504C24.344 86.6297 24.6341 91.5664 25.2154 96.3135L27.2006 96.0705C26.6299 91.4096 26.344 86.5543 26.344 81.504H24.344ZM25.2154 96.3135C25.7995 101.084 26.8697 105.897 28.4236 110.753L30.3284 110.143C28.8103 105.399 27.7685 100.708 27.2006 96.0705L25.2154 96.3135ZM28.4236 110.753C30.0091 115.707 32.5567 119.63 36.0953 122.461L37.3447 120.899C34.1633 118.354 31.8149 114.789 30.3284 110.143L28.4236 110.753ZM36.1092 122.472C39.6833 125.229 44.2341 126.568 49.68 126.568V124.568C44.566 124.568 40.4767 123.315 37.3308 120.888L36.1092 122.472ZM49.68 126.568C55.1036 126.568 60.4684 125.433 65.7679 123.176L64.9841 121.336C59.9156 123.495 54.8165 124.568 49.68 124.568V126.568ZM66.376 122.256V85.104H64.376V122.256H66.376ZM123.283 123.84H122.283V124.84H123.283V123.84ZM132.787 123.84H133.787V122.84H132.787V123.84ZM132.787 126V127H133.787V126H132.787ZM100.963 126H99.9631V127H100.963V126ZM100.963 123.84V122.84H99.9631V123.84H100.963ZM110.467 123.84V124.84H111.467V123.84H110.467ZM110.467 28.8H111.467V27.8H110.467V28.8ZM100.243 28.8H99.2431V29.8H100.243V28.8ZM100.243 26.64V25.64H99.2431V26.64H100.243ZM123.283 24.768H124.283V23.5324L123.075 23.79L123.283 24.768ZM123.283 124.84H132.787V122.84H123.283V124.84ZM131.787 123.84V126H133.787V123.84H131.787ZM132.787 125H100.963V127H132.787V125ZM101.963 126V123.84H99.9631V126H101.963ZM100.963 124.84H110.467V122.84H100.963V124.84ZM111.467 123.84V28.8H109.467V123.84H111.467ZM110.467 27.8H100.243V29.8H110.467V27.8ZM101.243 28.8V26.64H99.2431V28.8H101.243ZM100.243 27.64H103.267V25.64H100.243V27.64ZM103.267 27.64C110.809 27.64 117.553 27.0117 123.492 25.746L123.075 23.79C117.302 25.0203 110.702 25.64 103.267 25.64V27.64ZM122.283 24.768V123.84H124.283V24.768H122.283ZM199.749 118.8L200.519 119.438L199.749 118.8ZM153.093 118.8L152.323 119.438L153.093 118.8ZM153.093 66.96L152.323 66.322L153.093 66.96ZM199.749 66.96L200.519 66.322L199.749 66.96ZM193.845 83.232L194.843 83.1632L193.845 83.232ZM192.405 74.304L191.427 74.5115L191.43 74.5256L191.434 74.5396L192.405 74.304ZM189.525 66.528L188.647 67.0069L188.661 67.031L188.675 67.0544L189.525 66.528ZM184.341 61.344L183.821 62.1982L183.829 62.2031L183.838 62.2078L184.341 61.344ZM168.357 61.344L167.854 60.4802L167.845 60.4849L167.837 60.4898L168.357 61.344ZM163.173 66.528L162.312 66.0193L162.309 66.0255L162.305 66.0319L163.173 66.528ZM160.293 74.304L159.322 74.0684L159.318 74.0824L159.315 74.0965L160.293 74.304ZM158.997 83.232L158 83.1632L158.997 83.232ZM160.293 111.456L159.315 111.664L159.318 111.678L159.322 111.692L160.293 111.456ZM163.173 119.376L162.295 119.855L162.309 119.879L162.323 119.902L163.173 119.376ZM168.357 124.416L167.837 125.27L167.845 125.275L167.854 125.28L168.357 124.416ZM184.341 124.416L183.838 123.552L183.829 123.557L183.821 123.562L184.341 124.416ZM189.525 119.376L188.664 118.867L188.661 118.874L188.657 118.88L189.525 119.376ZM192.405 111.456L191.434 111.22L191.43 111.234L191.427 111.248L192.405 111.456ZM198.979 118.162C193.63 124.618 186.156 127.88 176.421 127.88V129.88C186.655 129.88 194.733 126.422 200.519 119.438L198.979 118.162ZM176.421 127.88C166.687 127.88 159.213 124.618 153.863 118.162L152.323 119.438C158.11 126.422 166.188 129.88 176.421 129.88V127.88ZM153.863 118.162C148.474 111.657 145.741 103.258 145.741 92.88H143.741C143.741 103.622 146.577 112.503 152.323 119.438L153.863 118.162ZM145.741 92.88C145.741 82.5021 148.474 74.103 153.863 67.598L152.323 66.322C146.577 73.257 143.741 82.1379 143.741 92.88H145.741ZM153.863 67.598C159.213 61.1419 166.687 57.88 176.421 57.88V55.88C166.188 55.88 158.11 59.3381 152.323 66.322L153.863 67.598ZM176.421 57.88C186.156 57.88 193.63 61.1419 198.979 67.598L200.519 66.322C194.733 59.3381 186.655 55.88 176.421 55.88V57.88ZM198.979 67.598C204.369 74.103 207.101 82.5021 207.101 92.88H209.101C209.101 82.1379 206.266 73.257 200.519 66.322L198.979 67.598ZM207.101 92.88C207.101 103.258 204.369 111.657 198.979 118.162L200.519 119.438C206.266 112.503 209.101 103.622 209.101 92.88H207.101ZM194.843 102.597C195.037 99.7842 195.133 96.5444 195.133 92.88H193.133C193.133 96.5116 193.038 99.7038 192.848 102.459L194.843 102.597ZM195.133 92.88C195.133 89.2156 195.037 85.9758 194.843 83.1632L192.848 83.3008C193.038 86.0562 193.133 89.2484 193.133 92.88H195.133ZM194.843 83.1632C194.647 80.3145 194.156 77.2823 193.377 74.0684L191.434 74.5396C192.19 77.6617 192.66 80.5815 192.848 83.3008L194.843 83.1632ZM193.384 74.0965C192.696 70.8541 191.702 68.1444 190.376 66.0016L188.675 67.0544C189.845 68.9436 190.771 71.4179 191.427 74.5115L193.384 74.0965ZM190.403 66.0491C189.155 63.7601 187.289 61.9058 184.845 60.4802L183.838 62.2078C186.002 63.4702 187.592 65.0718 188.647 67.0069L190.403 66.0491ZM184.861 60.4898C182.469 59.0338 179.642 58.328 176.421 58.328V60.328C179.345 60.328 181.797 60.9662 183.821 62.1982L184.861 60.4898ZM176.421 58.328C173.2 58.328 170.332 59.0342 167.854 60.4802L168.861 62.2078C170.99 60.9658 173.499 60.328 176.421 60.328V58.328ZM167.837 60.4898C165.497 61.9145 163.649 63.7582 162.312 66.0193L164.034 67.0367C165.194 65.0738 166.802 63.4615 168.877 62.1982L167.837 60.4898ZM162.305 66.0319C161.092 68.1549 160.103 70.8429 159.322 74.0684L161.265 74.5396C162.019 71.4291 162.951 68.9331 164.042 67.0241L162.305 66.0319ZM159.315 74.0965C158.635 77.3031 158.195 80.3259 158 83.1632L159.995 83.3008C160.183 80.5701 160.608 77.6408 161.272 74.5115L159.315 74.0965ZM158 83.1632C157.806 85.9758 157.709 89.2156 157.709 92.88H159.709C159.709 89.2484 159.805 86.0562 159.995 83.3008L158 83.1632ZM157.709 92.88C157.709 96.5444 157.806 99.7842 158 102.597L159.995 102.459C159.805 99.7038 159.709 96.5116 159.709 92.88H157.709ZM158 102.597C158.195 105.434 158.635 108.457 159.315 111.664L161.272 111.248C160.608 108.119 160.183 105.19 159.995 102.459L158 102.597ZM159.322 111.692C160.103 114.917 161.09 117.645 162.295 119.855L164.051 118.897C162.953 116.883 162.019 114.331 161.265 111.22L159.322 111.692ZM162.323 119.902C163.661 122.064 165.507 123.852 167.837 125.27L168.877 123.562C166.791 122.292 165.182 120.72 164.024 118.85L162.323 119.902ZM167.854 125.28C170.332 126.726 173.2 127.432 176.421 127.432V125.432C173.499 125.432 170.99 124.794 168.861 123.552L167.854 125.28ZM176.421 127.432C179.642 127.432 182.469 126.726 184.861 125.27L183.821 123.562C181.797 124.794 179.345 125.432 176.421 125.432V127.432ZM184.845 125.28C187.278 123.861 189.142 122.062 190.394 119.872L188.657 118.88C187.604 120.722 186.013 122.283 183.838 123.552L184.845 125.28ZM190.386 119.885C191.704 117.655 192.696 114.906 193.384 111.664L191.427 111.248C190.771 114.342 189.843 116.873 188.664 118.867L190.386 119.885ZM193.377 111.692C194.156 108.478 194.647 105.445 194.843 102.597L192.848 102.459C192.66 105.179 192.19 108.098 191.434 111.22L193.377 111.692ZM314.791 108.72L313.88 108.308L314.791 108.72ZM309.607 61.776L309.39 62.7522L309.407 62.756L309.425 62.7593L309.607 61.776ZM313.495 67.536L314.494 67.5836L314.495 67.5598V67.536H313.495ZM311.191 72.432L310.536 71.6763L310.523 71.6875L310.51 71.6992L311.191 72.432ZM300.103 72L299.373 72.6839L299.384 72.6957L299.396 72.7071L300.103 72ZM300.967 59.616L301.618 60.3753L301.628 60.3665L301.638 60.3575L300.967 59.616ZM315.511 113.328L314.623 112.868L315.511 113.328ZM275.191 107.856L276.135 107.526L275.264 105.035L274.265 107.477L275.191 107.856ZM265.687 123.12L264.971 122.422L265.687 123.12ZM234.295 112.752L233.379 113.153L233.382 113.16L234.295 112.752ZM227.239 61.92H228.239V60.92H227.239V61.92ZM217.015 61.92H216.015V62.92H217.015V61.92ZM217.015 59.76V58.76H216.015V59.76H217.015ZM240.343 57.888H241.343V56.6566L240.138 56.9093L240.343 57.888ZM244.231 103.392L243.258 103.622L243.258 103.623L244.231 103.392ZM249.991 117.216L249.172 117.791L249.18 117.801L249.991 117.216ZM266.839 117.36L266.06 116.733L266.058 116.735L266.839 117.36ZM273.895 103.968L274.838 104.299L274.942 104.004L274.859 103.702L273.895 103.968ZM270.007 61.92H271.007V60.92H270.007V61.92ZM259.783 61.92H258.783V62.92H259.783V61.92ZM259.783 59.76V58.76H258.783V59.76H259.783ZM283.111 57.888H284.111V56.6566L282.906 56.9093L283.111 57.888ZM286.999 103.392L286.026 103.622L286.026 103.623L286.999 103.392ZM292.759 117.216L291.94 117.791L291.948 117.801L292.759 117.216ZM301.399 123.4C304.147 123.4 306.706 122.086 309.061 119.68C311.408 117.282 313.614 113.745 315.702 109.132L313.88 108.308C311.84 112.815 309.749 116.118 307.632 118.28C305.524 120.434 303.45 121.4 301.399 121.4V123.4ZM315.702 109.132C319.889 99.8819 321.983 90.1412 321.983 79.92H319.983C319.983 89.8588 317.949 99.3181 313.88 108.308L315.702 109.132ZM321.983 79.92C321.983 72.9504 321.045 67.5665 319.054 63.8917C318.051 62.0393 316.768 60.6004 315.189 59.6283C313.607 58.6547 311.782 58.184 309.751 58.184V60.184C311.463 60.184 312.915 60.5773 314.141 61.3317C315.369 62.0876 316.427 63.2407 317.295 64.8443C319.049 68.0815 319.983 73.0656 319.983 79.92H321.983ZM309.751 58.184C309.164 58.184 308.539 58.297 308.046 58.6911C307.511 59.1193 307.311 59.7313 307.311 60.336H309.311C309.311 60.2464 309.325 60.2141 309.324 60.2166C309.32 60.2252 309.309 60.2423 309.295 60.2529C309.283 60.263 309.378 60.184 309.751 60.184V58.184ZM307.311 60.336C307.311 60.9176 307.48 61.4837 307.891 61.941C308.29 62.3836 308.828 62.6274 309.39 62.7522L309.824 60.7998C309.521 60.7326 309.412 60.6404 309.378 60.603C309.358 60.5803 309.311 60.5224 309.311 60.336H307.311ZM309.425 62.7593C310.497 62.9578 311.217 63.4291 311.694 64.1355C312.191 64.8713 312.495 65.9699 312.495 67.536H314.495C314.495 65.7421 314.151 64.2007 313.352 63.0165C312.532 61.8029 311.309 61.0742 309.789 60.7927L309.425 62.7593ZM312.496 67.4884C312.412 69.2494 311.756 70.6189 310.536 71.6763L311.846 73.1877C313.506 71.7491 314.385 69.8546 314.494 67.5836L312.496 67.4884ZM310.51 71.6992C309.395 72.7345 307.838 73.304 305.719 73.304V75.304C308.208 75.304 310.298 74.6255 311.871 73.1648L310.51 71.6992ZM305.719 73.304C303.771 73.304 302.155 72.6379 300.81 71.2929L299.396 72.7071C301.123 74.4341 303.25 75.304 305.719 75.304V73.304ZM300.832 71.3161C299.598 69.999 298.943 68.2441 298.943 65.952H296.943C296.943 68.6519 297.728 70.929 299.373 72.6839L300.832 71.3161ZM298.943 65.952C298.943 63.7685 299.807 61.9271 301.618 60.3753L300.316 58.8567C298.094 60.7609 296.943 63.1435 296.943 65.952H298.943ZM301.638 60.3575C303.458 58.7104 305.663 57.88 308.311 57.88V55.88C305.199 55.88 302.507 56.8736 300.296 58.8745L301.638 60.3575ZM308.311 57.88C313.116 57.88 316.599 59.6254 318.932 63.058C321.311 66.5597 322.575 71.938 322.575 79.344H324.575C324.575 71.774 323.294 65.9203 320.586 61.934C317.83 57.8786 313.682 55.88 308.311 55.88V57.88ZM322.575 79.344C322.575 91.4804 319.921 102.649 314.623 112.868L316.398 113.788C321.852 103.271 324.575 91.7836 324.575 79.344H322.575ZM314.623 112.868C309.308 123.119 303.233 127.88 296.503 127.88V129.88C304.364 129.88 310.962 124.273 316.398 113.788L314.623 112.868ZM296.503 127.88C287.849 127.88 280.987 121.417 276.135 107.526L274.247 108.186C279.186 122.327 286.533 129.88 296.503 129.88V127.88ZM274.265 107.477C271.709 113.726 268.604 118.696 264.971 122.422L266.403 123.818C270.258 119.864 273.489 114.658 276.116 108.235L274.265 107.477ZM264.971 122.422C261.361 126.124 257.621 127.88 253.735 127.88V129.88C258.296 129.88 262.524 127.796 266.403 123.818L264.971 122.422ZM253.735 127.88C246.138 127.88 239.93 122.921 235.208 112.344L233.382 113.16C238.26 124.087 245.011 129.88 253.735 129.88V127.88ZM235.211 112.351C230.583 101.773 228.239 87.6701 228.239 69.984H226.239C226.239 87.8179 228.598 102.227 233.379 113.153L235.211 112.351ZM228.239 69.984V61.92H226.239V69.984H228.239ZM227.239 60.92H217.015V62.92H227.239V60.92ZM218.015 61.92V59.76H216.015V61.92H218.015ZM217.015 60.76H220.039V58.76H217.015V60.76ZM220.039 60.76C227.676 60.76 234.514 60.1318 240.548 58.8667L240.138 56.9093C234.267 58.1402 227.57 58.76 220.039 58.76V60.76ZM239.343 57.888V66.672H241.343V57.888H239.343ZM239.343 66.672C239.343 80.2704 240.645 92.5895 243.258 103.622L245.204 103.162C242.633 92.3065 241.343 80.1455 241.343 66.672H239.343ZM243.258 103.623C244.622 109.371 246.583 114.106 249.173 117.791L250.809 116.641C248.406 113.222 246.528 108.741 245.204 103.161L243.258 103.623ZM249.18 117.801C251.778 121.398 254.778 123.4 258.199 123.4V121.4C255.667 121.4 253.196 119.946 250.801 116.631L249.18 117.801ZM258.199 123.4C261.683 123.4 264.822 121.482 267.62 117.985L266.058 116.735C263.48 119.958 260.859 121.4 258.199 121.4V123.4ZM267.617 117.987C270.491 114.42 272.892 109.847 274.838 104.299L272.951 103.637C271.058 109.033 268.754 113.388 266.06 116.733L267.617 117.987ZM274.859 103.702C272.297 94.4055 271.007 83.1719 271.007 69.984H269.007C269.007 83.2921 270.308 94.7145 272.931 104.234L274.859 103.702ZM271.007 69.984V61.92H269.007V69.984H271.007ZM270.007 60.92H259.783V62.92H270.007V60.92ZM260.783 61.92V59.76H258.783V61.92H260.783ZM259.783 60.76H262.807V58.76H259.783V60.76ZM262.807 60.76C270.444 60.76 277.282 60.1318 283.316 58.8667L282.906 56.9093C277.035 58.1402 270.338 58.76 262.807 58.76V60.76ZM282.111 57.888V66.672H284.111V57.888H282.111ZM282.111 66.672C282.111 80.2704 283.413 92.5895 286.026 103.622L287.972 103.162C285.401 92.3065 284.111 80.1455 284.111 66.672H282.111ZM286.026 103.623C287.39 109.371 289.351 114.106 291.941 117.791L293.577 116.641C291.174 113.222 289.296 108.741 287.972 103.161L286.026 103.623ZM291.948 117.801C294.569 121.43 297.719 123.4 301.399 123.4V121.4C298.551 121.4 295.941 119.914 293.569 116.631L291.948 117.801Z" fill="black" fill-opacity="0.05"/>
</g>
<path d="M71.9854 167.04C71.9854 168.45 71.7163 169.693 71.1782 170.77C70.6587 171.846 69.9165 172.746 68.9517 173.469C67.9868 174.193 66.8457 174.731 65.5283 175.083C64.2109 175.455 62.7822 175.64 61.2422 175.64C60.3145 175.64 59.4238 175.566 58.5703 175.417C57.7354 175.288 56.9839 175.121 56.3159 174.917C55.6479 174.694 55.0913 174.471 54.646 174.249C54.2007 174.026 53.876 173.822 53.6719 173.636C53.4678 173.432 53.3101 173.126 53.1987 172.718C53.0874 172.291 53.0317 171.669 53.0317 170.853C53.0317 170.315 53.0503 169.888 53.0874 169.573C53.1245 169.239 53.1802 168.979 53.2544 168.793C53.3286 168.589 53.4214 168.459 53.5327 168.404C53.644 168.33 53.7832 168.292 53.9502 168.292C54.1543 168.292 54.4512 168.413 54.8408 168.654C55.249 168.877 55.75 169.127 56.3438 169.406C56.9375 169.684 57.624 169.944 58.4033 170.185C59.2012 170.426 60.1011 170.547 61.103 170.547C61.7339 170.547 62.2905 170.482 62.7729 170.352C63.2739 170.222 63.7007 170.037 64.0532 169.795C64.4243 169.554 64.7026 169.248 64.8882 168.877C65.0737 168.506 65.1665 168.079 65.1665 167.597C65.1665 167.04 64.9902 166.567 64.6377 166.177C64.3037 165.769 63.8491 165.417 63.2739 165.12C62.7173 164.823 62.0771 164.544 61.3535 164.285C60.6484 164.025 59.9155 163.737 59.1548 163.422C58.4126 163.106 57.6797 162.745 56.9561 162.336C56.251 161.928 55.6108 161.427 55.0356 160.833C54.479 160.24 54.0244 159.525 53.6719 158.69C53.3379 157.855 53.1709 156.854 53.1709 155.685C53.1709 154.497 53.4028 153.412 53.8667 152.428C54.3306 151.426 54.9985 150.573 55.8706 149.868C56.7427 149.163 57.8003 148.615 59.0435 148.226C60.3052 147.836 61.7153 147.641 63.2739 147.641C64.0532 147.641 64.8047 147.697 65.5283 147.808C66.2705 147.919 66.9385 148.059 67.5322 148.226C68.126 148.393 68.627 148.578 69.0352 148.782C69.4434 148.968 69.731 149.135 69.8979 149.283C70.0835 149.413 70.2134 149.552 70.2876 149.701C70.3618 149.831 70.4175 149.998 70.4546 150.202C70.4917 150.387 70.5195 150.628 70.5381 150.925C70.5752 151.204 70.5938 151.556 70.5938 151.983C70.5938 152.484 70.5752 152.892 70.5381 153.208C70.5195 153.523 70.4731 153.773 70.3989 153.959C70.3433 154.145 70.2598 154.274 70.1484 154.349C70.0371 154.404 69.9072 154.432 69.7588 154.432C69.5918 154.432 69.332 154.339 68.9795 154.154C68.627 153.95 68.1816 153.736 67.6436 153.514C67.124 153.291 66.5117 153.087 65.8066 152.901C65.1201 152.697 64.3315 152.595 63.4409 152.595C62.8101 152.595 62.2627 152.66 61.7988 152.79C61.335 152.92 60.9546 153.105 60.6577 153.347C60.3608 153.588 60.1382 153.875 59.9897 154.209C59.8413 154.525 59.7671 154.868 59.7671 155.239C59.7671 155.814 59.9434 156.297 60.2959 156.687C60.6484 157.076 61.1123 157.419 61.6875 157.716C62.2627 158.013 62.9121 158.292 63.6357 158.551C64.3779 158.811 65.1201 159.099 65.8623 159.414C66.623 159.711 67.3652 160.063 68.0889 160.472C68.8311 160.88 69.4897 161.381 70.0649 161.975C70.6401 162.568 71.104 163.283 71.4565 164.118C71.8091 164.934 71.9854 165.908 71.9854 167.04ZM91.3008 171.604C91.3008 172.421 91.2451 173.052 91.1338 173.497C91.041 173.924 90.9111 174.23 90.7441 174.416C90.5771 174.583 90.3267 174.74 89.9927 174.889C89.6772 175.019 89.2969 175.13 88.8516 175.223C88.4248 175.334 87.9517 175.417 87.4321 175.473C86.9312 175.529 86.4209 175.557 85.9014 175.557C84.5098 175.557 83.3037 175.38 82.2832 175.028C81.2627 174.675 80.4185 174.137 79.7505 173.414C79.0825 172.671 78.5908 171.744 78.2754 170.63C77.96 169.517 77.8022 168.2 77.8022 166.678V153.959H74.8242C74.4717 153.959 74.2026 153.746 74.0171 153.319C73.8315 152.874 73.7388 152.141 73.7388 151.12C73.7388 150.582 73.7573 150.127 73.7944 149.756C73.8501 149.385 73.9243 149.098 74.0171 148.894C74.1099 148.671 74.2212 148.513 74.3511 148.42C74.4995 148.328 74.6665 148.281 74.8521 148.281H77.8022V142.743C77.8022 142.557 77.8486 142.39 77.9414 142.242C78.0527 142.093 78.2383 141.973 78.498 141.88C78.7764 141.769 79.1382 141.694 79.5835 141.657C80.0474 141.602 80.6133 141.574 81.2812 141.574C81.9678 141.574 82.5337 141.602 82.979 141.657C83.4429 141.694 83.8047 141.769 84.0645 141.88C84.3242 141.973 84.5098 142.093 84.6211 142.242C84.7324 142.39 84.7881 142.557 84.7881 142.743V148.281H90.1875C90.373 148.281 90.5308 148.328 90.6606 148.42C90.8091 148.513 90.9297 148.671 91.0225 148.894C91.1152 149.098 91.1802 149.385 91.2173 149.756C91.2729 150.127 91.3008 150.582 91.3008 151.12C91.3008 152.141 91.208 152.874 91.0225 153.319C90.8369 153.746 90.5679 153.959 90.2153 153.959H84.7881V165.621C84.7881 166.975 85.0015 167.996 85.4282 168.682C85.855 169.35 86.6157 169.684 87.7104 169.684C88.0815 169.684 88.4155 169.656 88.7124 169.601C89.0093 169.526 89.269 169.452 89.4917 169.378C89.7329 169.285 89.9277 169.211 90.0762 169.155C90.2432 169.081 90.3916 169.044 90.5215 169.044C90.6328 169.044 90.7349 169.081 90.8276 169.155C90.939 169.211 91.0225 169.341 91.0781 169.545C91.1338 169.73 91.1802 169.99 91.2173 170.324C91.2729 170.658 91.3008 171.085 91.3008 171.604ZM120.914 161.39C120.914 163.505 120.636 165.435 120.079 167.179C119.522 168.923 118.678 170.426 117.546 171.688C116.415 172.95 114.995 173.924 113.288 174.61C111.581 175.297 109.586 175.64 107.304 175.64C105.096 175.64 103.176 175.334 101.543 174.722C99.9102 174.109 98.5557 173.219 97.4795 172.05C96.4033 170.881 95.6055 169.443 95.0859 167.736C94.5664 166.029 94.3066 164.081 94.3066 161.891C94.3066 159.776 94.585 157.846 95.1416 156.102C95.7168 154.339 96.5703 152.836 97.7021 151.593C98.834 150.332 100.244 149.357 101.933 148.671C103.64 147.984 105.634 147.641 107.917 147.641C110.143 147.641 112.073 147.947 113.706 148.56C115.338 149.153 116.684 150.035 117.741 151.204C118.817 152.373 119.615 153.811 120.135 155.518C120.654 157.225 120.914 159.182 120.914 161.39ZM113.706 161.668C113.706 160.444 113.604 159.321 113.399 158.301C113.214 157.262 112.889 156.362 112.425 155.601C111.961 154.84 111.34 154.247 110.561 153.82C109.8 153.393 108.835 153.18 107.666 153.18C106.627 153.18 105.718 153.375 104.938 153.764C104.159 154.135 103.519 154.692 103.018 155.434C102.517 156.158 102.137 157.039 101.877 158.078C101.636 159.099 101.515 160.268 101.515 161.585C101.515 162.81 101.617 163.941 101.821 164.98C102.025 166.001 102.35 166.892 102.795 167.652C103.259 168.413 103.881 169.007 104.66 169.434C105.439 169.842 106.404 170.046 107.555 170.046C108.612 170.046 109.531 169.86 110.31 169.489C111.089 169.1 111.729 168.543 112.23 167.819C112.731 167.096 113.103 166.224 113.344 165.203C113.585 164.164 113.706 162.986 113.706 161.668ZM151.474 161.279C151.474 163.487 151.232 165.481 150.75 167.263C150.286 169.025 149.6 170.528 148.69 171.771C147.781 173.015 146.649 173.97 145.295 174.638C143.94 175.306 142.391 175.64 140.647 175.64C139.923 175.64 139.255 175.566 138.643 175.417C138.049 175.288 137.465 175.083 136.89 174.805C136.333 174.508 135.776 174.146 135.22 173.72C134.663 173.293 134.088 172.792 133.494 172.217V183.906C133.494 184.092 133.438 184.259 133.327 184.407C133.216 184.556 133.021 184.676 132.743 184.769C132.483 184.88 132.13 184.964 131.685 185.02C131.24 185.075 130.674 185.103 129.987 185.103C129.301 185.103 128.735 185.075 128.29 185.02C127.844 184.964 127.482 184.88 127.204 184.769C126.944 184.676 126.759 184.556 126.647 184.407C126.536 184.259 126.48 184.092 126.48 183.906V149.228C126.48 149.042 126.527 148.884 126.62 148.754C126.712 148.606 126.87 148.485 127.093 148.393C127.334 148.3 127.64 148.235 128.011 148.198C128.401 148.142 128.883 148.114 129.458 148.114C130.015 148.114 130.479 148.142 130.85 148.198C131.24 148.235 131.546 148.3 131.769 148.393C132.01 148.485 132.177 148.606 132.27 148.754C132.362 148.884 132.409 149.042 132.409 149.228V152.15C133.132 151.408 133.837 150.758 134.524 150.202C135.229 149.626 135.943 149.153 136.667 148.782C137.391 148.393 138.133 148.105 138.894 147.919C139.673 147.734 140.499 147.641 141.371 147.641C143.189 147.641 144.738 148.003 146.019 148.727C147.299 149.432 148.338 150.406 149.136 151.649C149.952 152.892 150.546 154.339 150.917 155.991C151.288 157.642 151.474 159.405 151.474 161.279ZM144.182 161.78C144.182 160.722 144.098 159.711 143.931 158.746C143.783 157.763 143.514 156.891 143.124 156.13C142.753 155.369 142.252 154.766 141.621 154.321C141.009 153.857 140.239 153.625 139.311 153.625C138.847 153.625 138.383 153.699 137.919 153.848C137.474 153.978 137.01 154.2 136.528 154.516C136.064 154.831 135.582 155.239 135.081 155.74C134.58 156.241 134.051 156.863 133.494 157.605V165.788C134.478 167.031 135.415 167.996 136.305 168.682C137.196 169.35 138.124 169.684 139.088 169.684C139.998 169.684 140.768 169.452 141.398 168.988C142.048 168.524 142.577 167.921 142.985 167.179C143.393 166.418 143.69 165.565 143.875 164.619C144.08 163.672 144.182 162.726 144.182 161.78ZM182.089 161.279C182.089 163.487 181.848 165.481 181.365 167.263C180.901 169.025 180.215 170.528 179.306 171.771C178.396 173.015 177.265 173.97 175.91 174.638C174.556 175.306 173.006 175.64 171.262 175.64C170.539 175.64 169.871 175.566 169.258 175.417C168.665 175.288 168.08 175.083 167.505 174.805C166.948 174.508 166.392 174.146 165.835 173.72C165.278 173.293 164.703 172.792 164.109 172.217V183.906C164.109 184.092 164.054 184.259 163.942 184.407C163.831 184.556 163.636 184.676 163.358 184.769C163.098 184.88 162.746 184.964 162.3 185.02C161.855 185.075 161.289 185.103 160.603 185.103C159.916 185.103 159.35 185.075 158.905 185.02C158.459 184.964 158.098 184.88 157.819 184.769C157.56 184.676 157.374 184.556 157.263 184.407C157.151 184.259 157.096 184.092 157.096 183.906V149.228C157.096 149.042 157.142 148.884 157.235 148.754C157.328 148.606 157.485 148.485 157.708 148.393C157.949 148.3 158.255 148.235 158.626 148.198C159.016 148.142 159.499 148.114 160.074 148.114C160.63 148.114 161.094 148.142 161.465 148.198C161.855 148.235 162.161 148.3 162.384 148.393C162.625 148.485 162.792 148.606 162.885 148.754C162.978 148.884 163.024 149.042 163.024 149.228V152.15C163.748 151.408 164.453 150.758 165.139 150.202C165.844 149.626 166.559 149.153 167.282 148.782C168.006 148.393 168.748 148.105 169.509 147.919C170.288 147.734 171.114 147.641 171.986 147.641C173.804 147.641 175.354 148.003 176.634 148.727C177.914 149.432 178.953 150.406 179.751 151.649C180.567 152.892 181.161 154.339 181.532 155.991C181.903 157.642 182.089 159.405 182.089 161.279ZM174.797 161.78C174.797 160.722 174.713 159.711 174.546 158.746C174.398 157.763 174.129 156.891 173.739 156.13C173.368 155.369 172.867 154.766 172.236 154.321C171.624 153.857 170.854 153.625 169.926 153.625C169.462 153.625 168.999 153.699 168.535 153.848C168.089 153.978 167.625 154.2 167.143 154.516C166.679 154.831 166.197 155.239 165.696 155.74C165.195 156.241 164.666 156.863 164.109 157.605V165.788C165.093 167.031 166.03 167.996 166.92 168.682C167.811 169.35 168.739 169.684 169.704 169.684C170.613 169.684 171.383 169.452 172.014 168.988C172.663 168.524 173.192 167.921 173.6 167.179C174.008 166.418 174.305 165.565 174.491 164.619C174.695 163.672 174.797 162.726 174.797 161.78ZM210.645 160.917C210.645 161.771 210.45 162.401 210.06 162.81C209.689 163.218 209.169 163.422 208.501 163.422H193.389C193.389 164.479 193.509 165.444 193.75 166.316C194.01 167.17 194.409 167.903 194.947 168.515C195.504 169.109 196.209 169.563 197.062 169.879C197.935 170.194 198.974 170.352 200.18 170.352C201.404 170.352 202.48 170.269 203.408 170.102C204.336 169.916 205.134 169.721 205.802 169.517C206.488 169.294 207.054 169.1 207.5 168.933C207.945 168.747 208.307 168.654 208.585 168.654C208.752 168.654 208.891 168.691 209.002 168.766C209.114 168.821 209.207 168.933 209.281 169.1C209.355 169.267 209.401 169.508 209.42 169.823C209.457 170.12 209.476 170.5 209.476 170.964C209.476 171.373 209.466 171.725 209.448 172.022C209.429 172.3 209.401 172.542 209.364 172.746C209.327 172.95 209.271 173.126 209.197 173.274C209.123 173.404 209.021 173.534 208.891 173.664C208.78 173.794 208.455 173.97 207.917 174.193C207.379 174.416 206.692 174.638 205.857 174.861C205.022 175.065 204.067 175.241 202.991 175.39C201.915 175.557 200.764 175.64 199.54 175.64C197.332 175.64 195.393 175.362 193.723 174.805C192.071 174.249 190.689 173.404 189.576 172.272C188.462 171.141 187.627 169.712 187.071 167.986C186.533 166.261 186.264 164.238 186.264 161.919C186.264 159.711 186.551 157.726 187.126 155.963C187.702 154.182 188.537 152.679 189.631 151.454C190.726 150.211 192.053 149.265 193.611 148.615C195.188 147.966 196.96 147.641 198.927 147.641C201.005 147.641 202.777 147.947 204.243 148.56C205.728 149.172 206.943 150.025 207.889 151.12C208.835 152.196 209.531 153.477 209.977 154.961C210.422 156.445 210.645 158.06 210.645 159.804V160.917ZM203.854 158.913C203.909 156.946 203.51 155.406 202.657 154.293C201.822 153.161 200.523 152.595 198.76 152.595C197.87 152.595 197.09 152.762 196.422 153.096C195.773 153.43 195.226 153.885 194.78 154.46C194.354 155.017 194.02 155.685 193.778 156.464C193.556 157.225 193.426 158.041 193.389 158.913H203.854ZM232.381 151.538C232.381 152.206 232.363 152.753 232.326 153.18C232.289 153.606 232.233 153.94 232.159 154.182C232.084 154.423 231.982 154.59 231.853 154.683C231.741 154.775 231.593 154.822 231.407 154.822C231.259 154.822 231.092 154.794 230.906 154.738C230.721 154.664 230.507 154.59 230.266 154.516C230.043 154.441 229.793 154.376 229.515 154.321C229.236 154.247 228.93 154.209 228.596 154.209C228.207 154.209 227.817 154.293 227.427 154.46C227.038 154.608 226.629 154.85 226.203 155.184C225.794 155.518 225.358 155.963 224.895 156.52C224.449 157.076 223.967 157.763 223.447 158.579V174.054C223.447 174.239 223.392 174.406 223.28 174.555C223.169 174.685 222.974 174.796 222.696 174.889C222.436 174.981 222.083 175.046 221.638 175.083C221.193 175.139 220.627 175.167 219.94 175.167C219.254 175.167 218.688 175.139 218.243 175.083C217.797 175.046 217.436 174.981 217.157 174.889C216.897 174.796 216.712 174.685 216.601 174.555C216.489 174.406 216.434 174.239 216.434 174.054V149.228C216.434 149.042 216.48 148.884 216.573 148.754C216.666 148.606 216.833 148.485 217.074 148.393C217.315 148.3 217.621 148.235 217.992 148.198C218.382 148.142 218.864 148.114 219.439 148.114C220.033 148.114 220.525 148.142 220.915 148.198C221.304 148.235 221.601 148.3 221.805 148.393C222.028 148.485 222.186 148.606 222.278 148.754C222.371 148.884 222.417 149.042 222.417 149.228V152.317C223.067 151.389 223.679 150.628 224.254 150.035C224.83 149.422 225.377 148.94 225.896 148.587C226.416 148.235 226.936 147.994 227.455 147.864C227.975 147.715 228.494 147.641 229.014 147.641C229.255 147.641 229.515 147.66 229.793 147.697C230.071 147.715 230.359 147.762 230.656 147.836C230.953 147.892 231.212 147.966 231.435 148.059C231.658 148.133 231.815 148.216 231.908 148.309C232.02 148.402 232.094 148.504 232.131 148.615C232.187 148.727 232.233 148.884 232.27 149.088C232.307 149.274 232.335 149.562 232.354 149.951C232.372 150.341 232.381 150.87 232.381 151.538Z" fill="white"/>
<path d="M255.455 170.847C253.204 170.847 251.379 172.672 251.379 174.924C251.379 177.175 253.204 179 255.455 179C257.707 179 259.532 177.175 259.532 174.924C259.532 172.672 257.707 170.847 255.455 170.847ZM255.455 177.188C254.205 177.188 253.191 176.174 253.191 174.924C253.191 173.673 254.205 172.659 255.455 172.659C256.706 172.659 257.72 173.673 257.72 174.924C257.72 176.174 256.706 177.188 255.455 177.188Z" fill="#FFD700"/>
<path d="M272.666 170.847C270.415 170.847 268.59 172.672 268.59 174.924C268.59 177.175 270.415 179 272.666 179C274.918 179 276.743 177.175 276.743 174.924C276.743 172.672 274.918 170.847 272.666 170.847ZM272.666 177.188C271.416 177.188 270.402 176.174 270.402 174.924C270.402 173.673 271.416 172.659 272.666 172.659C273.917 172.659 274.931 173.673 274.931 174.924C274.931 176.174 273.917 177.188 272.666 177.188Z" fill="#FFD700"/>
<path d="M281.861 147.069C281.672 146.863 281.414 146.734 281.136 146.707L251.651 146.299L250.836 143.808C250.261 142.143 248.702 141.019 246.94 141H243.906C243.406 141 243 141.406 243 141.906C243 142.406 243.406 142.812 243.906 142.812H246.94C247.925 142.833 248.793 143.466 249.114 144.397L254.867 161.744L254.414 162.785C253.909 164.088 254.06 165.554 254.821 166.726C255.575 167.877 256.843 168.587 258.218 168.628H275.837C276.337 168.628 276.743 168.223 276.743 167.722C276.743 167.222 276.337 166.816 275.837 166.816H258.218C257.442 166.797 256.727 166.389 256.316 165.729C255.909 165.078 255.826 164.276 256.089 163.555L256.452 162.74L275.52 160.747C277.614 160.517 279.337 158.993 279.823 156.943L281.997 147.839C282.095 147.577 282.043 147.282 281.861 147.069ZM278.056 156.535C277.762 157.855 276.641 158.829 275.293 158.936L256.452 160.883L252.24 148.111L280.004 148.519L278.056 156.535Z" fill="#FFD700"/>
<defs>
<filter id="filter0_d" x="3.776" y="24.768" width="323.799" height="112.112" filterUnits="userSpaceOnUse" color-interpolation-filters="sRGB">
<feFlood flood-opacity="0" result="BackgroundImageFix"/>
<feColorMatrix in="SourceAlpha" type="matrix" values="0 0 0 0 0 0 0 0 0 0 0 0 0 0 0 0 0 0 127 0"/>
<feOffset dy="4"/>
<feGaussianBlur stdDeviation="2"/>
<feColorMatrix type="matrix" values="0 0 0 0 1 0 0 0 0 0.843137 0 0 0 0 0 0 0 0 0.2 0"/>
<feBlend mode="normal" in2="BackgroundImageFix" result="effect1_dropShadow"/>
<feBlend mode="normal" in="SourceGraphic" in2="effect1_dropShadow" result="shape"/>
</filter>
</defs>
</svg>
